ISO-10303-21;
HEADER;
/* Generated by software containing ST-Developer
 * from STEP Tools, Inc. (www.steptools.com) 
 */

FILE_DESCRIPTION(
/* description */ ('STEP AP214'),
/* implementation_level */ '2;1');

FILE_NAME(
/* name */ 'GDT_THT.step',
/* time_stamp */ '2026-04-27T11:31:09+09:00',
/* author */ (''),
/* organization */ (''),
/* preprocessor_version */ 'ST-DEVELOPER v20.1',
/* originating_system */ 'Autodesk Translation Framework v15.8.0.0',
/* authorisation */ '');

FILE_SCHEMA (('AUTOMOTIVE_DESIGN { 1 0 10303 214 3 1 1 }'));
ENDSEC;

DATA;
#10=MECHANICAL_DESIGN_GEOMETRIC_PRESENTATION_REPRESENTATION('',(#20,#21),
#487);
#11=SHAPE_REPRESENTATION_RELATIONSHIP('SRR','None',#494,#12);
#12=ADVANCED_BREP_SHAPE_REPRESENTATION('',(#13),#486);
#13=MANIFOLD_SOLID_BREP('Cuerpo1',#245);
#14=FACE_BOUND('',#82,.T.);
#15=FACE_BOUND('',#84,.T.);
#16=FACE_BOUND('',#86,.T.);
#17=FACE_BOUND('',#88,.T.);
#18=B_SPLINE_CURVE_WITH_KNOTS('',3,(#439,#440,#441,#442,#443,#444,#445,
#446,#447,#448,#449,#450,#451,#452,#453,#454,#455,#456),.UNSPECIFIED.,.F.,
 .F.,(4,2,2,2,2,2,2,2,4),(0.5,0.5625,0.625,0.6875,0.75,0.8125,0.875,0.9375,
1.),.UNSPECIFIED.);
#19=B_SPLINE_CURVE_WITH_KNOTS('',3,(#458,#459,#460,#461,#462,#463,#464,
#465,#466,#467,#468,#469,#470,#471,#472,#473,#474,#475),.UNSPECIFIED.,.F.,
 .F.,(4,2,2,2,2,2,2,2,4),(0.,0.0625,0.125,0.1875,0.25,0.3125,0.375,0.4375,
0.5),.UNSPECIFIED.);
#20=STYLED_ITEM('',(#505),#239);
#21=STYLED_ITEM('',(#504),#13);
#22=CONICAL_SURFACE('',#279,1.75,0.785398163397454);
#23=CONICAL_SURFACE('',#282,1.75,0.785398163397454);
#24=TOROIDAL_SURFACE('',#268,1.50000000000001,0.5);
#25=TOROIDAL_SURFACE('',#271,1.49999999999996,0.5);
#26=LINE('',#390,#35);
#27=LINE('',#394,#36);
#28=LINE('',#410,#37);
#29=LINE('',#414,#38);
#30=LINE('',#420,#39);
#31=LINE('',#426,#40);
#32=LINE('',#433,#41);
#33=LINE('',#457,#42);
#34=LINE('',#479,#43);
#35=VECTOR('',#308,0.5);
#36=VECTOR('',#313,0.5);
#37=VECTOR('',#334,0.5);
#38=VECTOR('',#339,0.5);
#39=VECTOR('',#346,1.75);
#40=VECTOR('',#353,1.75);
#41=VECTOR('',#360,4.);
#42=VECTOR('',#367,4.005);
#43=VECTOR('',#372,4.);
#44=CYLINDRICAL_SURFACE('',#263,0.5);
#45=CYLINDRICAL_SURFACE('',#265,0.5);
#46=CYLINDRICAL_SURFACE('',#275,0.5);
#47=CYLINDRICAL_SURFACE('',#277,0.5);
#48=CYLINDRICAL_SURFACE('',#285,4.);
#49=CYLINDRICAL_SURFACE('',#289,4.005);
#50=CYLINDRICAL_SURFACE('',#290,4.);
#51=FACE_OUTER_BOUND('',#68,.T.);
#52=FACE_OUTER_BOUND('',#69,.T.);
#53=FACE_OUTER_BOUND('',#70,.T.);
#54=FACE_OUTER_BOUND('',#71,.T.);
#55=FACE_OUTER_BOUND('',#72,.T.);
#56=FACE_OUTER_BOUND('',#73,.T.);
#57=FACE_OUTER_BOUND('',#74,.T.);
#58=FACE_OUTER_BOUND('',#75,.T.);
#59=FACE_OUTER_BOUND('',#76,.T.);
#60=FACE_OUTER_BOUND('',#77,.T.);
#61=FACE_OUTER_BOUND('',#78,.T.);
#62=FACE_OUTER_BOUND('',#79,.T.);
#63=FACE_OUTER_BOUND('',#80,.T.);
#64=FACE_OUTER_BOUND('',#81,.T.);
#65=FACE_OUTER_BOUND('',#83,.T.);
#66=FACE_OUTER_BOUND('',#85,.T.);
#67=FACE_OUTER_BOUND('',#87,.T.);
#68=EDGE_LOOP('',(#160));
#69=EDGE_LOOP('',(#161));
#70=EDGE_LOOP('',(#162,#163,#164,#165));
#71=EDGE_LOOP('',(#166,#167,#168,#169,#170));
#72=EDGE_LOOP('',(#171,#172,#173,#174));
#73=EDGE_LOOP('',(#175,#176,#177,#178,#179,#180));
#74=EDGE_LOOP('',(#181,#182,#183,#184));
#75=EDGE_LOOP('',(#185,#186,#187,#188,#189));
#76=EDGE_LOOP('',(#190,#191,#192,#193));
#77=EDGE_LOOP('',(#194,#195,#196,#197));
#78=EDGE_LOOP('',(#198,#199,#200,#201,#202));
#79=EDGE_LOOP('',(#203,#204,#205,#206,#207,#208));
#80=EDGE_LOOP('',(#209,#210,#211,#212,#213));
#81=EDGE_LOOP('',(#214));
#82=EDGE_LOOP('',(#215));
#83=EDGE_LOOP('',(#216));
#84=EDGE_LOOP('',(#217));
#85=EDGE_LOOP('',(#218));
#86=EDGE_LOOP('',(#219));
#87=EDGE_LOOP('',(#220));
#88=EDGE_LOOP('',(#221));
#89=CIRCLE('',#260,0.5);
#90=CIRCLE('',#262,0.5);
#91=CIRCLE('',#264,0.5);
#92=CIRCLE('',#266,0.5);
#93=CIRCLE('',#267,0.5);
#94=CIRCLE('',#269,1.00000000000001);
#95=CIRCLE('',#270,0.5);
#96=CIRCLE('',#272,0.999999999999964);
#97=CIRCLE('',#273,0.5);
#98=CIRCLE('',#274,0.5);
#99=CIRCLE('',#276,0.5);
#100=CIRCLE('',#278,0.5);
#101=CIRCLE('',#280,1.75);
#102=CIRCLE('',#281,2.75);
#103=CIRCLE('',#283,1.75);
#104=CIRCLE('',#284,2.75);
#105=CIRCLE('',#286,4.005);
#106=CIRCLE('',#287,4.);
#107=CIRCLE('',#288,4.);
#108=CIRCLE('',#291,4.);
#109=VERTEX_POINT('',#383);
#110=VERTEX_POINT('',#386);
#111=VERTEX_POINT('',#389);
#112=VERTEX_POINT('',#393);
#113=VERTEX_POINT('',#395);
#114=VERTEX_POINT('',#399);
#115=VERTEX_POINT('',#403);
#116=VERTEX_POINT('',#405);
#117=VERTEX_POINT('',#409);
#118=VERTEX_POINT('',#413);
#119=VERTEX_POINT('',#417);
#120=VERTEX_POINT('',#419);
#121=VERTEX_POINT('',#423);
#122=VERTEX_POINT('',#425);
#123=VERTEX_POINT('',#429);
#124=VERTEX_POINT('',#430);
#125=VERTEX_POINT('',#432);
#126=VERTEX_POINT('',#437);
#127=VERTEX_POINT('',#438);
#128=VERTEX_POINT('',#477);
#129=EDGE_CURVE('',#109,#109,#89,.T.);
#130=EDGE_CURVE('',#110,#110,#90,.T.);
#131=EDGE_CURVE('',#110,#111,#26,.T.);
#132=EDGE_CURVE('',#111,#111,#91,.T.);
#133=EDGE_CURVE('',#109,#112,#27,.T.);
#134=EDGE_CURVE('',#112,#113,#92,.T.);
#135=EDGE_CURVE('',#113,#112,#93,.T.);
#136=EDGE_CURVE('',#111,#114,#94,.T.);
#137=EDGE_CURVE('',#114,#114,#95,.T.);
#138=EDGE_CURVE('',#113,#115,#96,.T.);
#139=EDGE_CURVE('',#115,#116,#97,.T.);
#140=EDGE_CURVE('',#116,#115,#98,.T.);
#141=EDGE_CURVE('',#114,#117,#28,.T.);
#142=EDGE_CURVE('',#117,#117,#99,.T.);
#143=EDGE_CURVE('',#116,#118,#29,.T.);
#144=EDGE_CURVE('',#118,#118,#100,.T.);
#145=EDGE_CURVE('',#119,#119,#101,.T.);
#146=EDGE_CURVE('',#119,#120,#30,.T.);
#147=EDGE_CURVE('',#120,#120,#102,.T.);
#148=EDGE_CURVE('',#121,#121,#103,.T.);
#149=EDGE_CURVE('',#121,#122,#31,.T.);
#150=EDGE_CURVE('',#122,#122,#104,.T.);
#151=EDGE_CURVE('',#123,#124,#105,.T.);
#152=EDGE_CURVE('',#124,#125,#32,.T.);
#153=EDGE_CURVE('',#125,#125,#106,.T.);
#154=EDGE_CURVE('',#124,#123,#107,.T.);
#155=EDGE_CURVE('',#126,#127,#18,.T.);
#156=EDGE_CURVE('',#127,#124,#33,.T.);
#157=EDGE_CURVE('',#127,#126,#19,.T.);
#158=EDGE_CURVE('',#128,#128,#108,.T.);
#159=EDGE_CURVE('',#128,#127,#34,.T.);
#160=ORIENTED_EDGE('',*,*,#129,.T.);
#161=ORIENTED_EDGE('',*,*,#130,.T.);
#162=ORIENTED_EDGE('',*,*,#130,.F.);
#163=ORIENTED_EDGE('',*,*,#131,.T.);
#164=ORIENTED_EDGE('',*,*,#132,.T.);
#165=ORIENTED_EDGE('',*,*,#131,.F.);
#166=ORIENTED_EDGE('',*,*,#129,.F.);
#167=ORIENTED_EDGE('',*,*,#133,.T.);
#168=ORIENTED_EDGE('',*,*,#134,.T.);
#169=ORIENTED_EDGE('',*,*,#135,.T.);
#170=ORIENTED_EDGE('',*,*,#133,.F.);
#171=ORIENTED_EDGE('',*,*,#132,.F.);
#172=ORIENTED_EDGE('',*,*,#136,.T.);
#173=ORIENTED_EDGE('',*,*,#137,.T.);
#174=ORIENTED_EDGE('',*,*,#136,.F.);
#175=ORIENTED_EDGE('',*,*,#135,.F.);
#176=ORIENTED_EDGE('',*,*,#138,.T.);
#177=ORIENTED_EDGE('',*,*,#139,.T.);
#178=ORIENTED_EDGE('',*,*,#140,.T.);
#179=ORIENTED_EDGE('',*,*,#138,.F.);
#180=ORIENTED_EDGE('',*,*,#134,.F.);
#181=ORIENTED_EDGE('',*,*,#137,.F.);
#182=ORIENTED_EDGE('',*,*,#141,.T.);
#183=ORIENTED_EDGE('',*,*,#142,.T.);
#184=ORIENTED_EDGE('',*,*,#141,.F.);
#185=ORIENTED_EDGE('',*,*,#139,.F.);
#186=ORIENTED_EDGE('',*,*,#140,.F.);
#187=ORIENTED_EDGE('',*,*,#143,.T.);
#188=ORIENTED_EDGE('',*,*,#144,.T.);
#189=ORIENTED_EDGE('',*,*,#143,.F.);
#190=ORIENTED_EDGE('',*,*,#145,.F.);
#191=ORIENTED_EDGE('',*,*,#146,.T.);
#192=ORIENTED_EDGE('',*,*,#147,.T.);
#193=ORIENTED_EDGE('',*,*,#146,.F.);
#194=ORIENTED_EDGE('',*,*,#148,.F.);
#195=ORIENTED_EDGE('',*,*,#149,.T.);
#196=ORIENTED_EDGE('',*,*,#150,.T.);
#197=ORIENTED_EDGE('',*,*,#149,.F.);
#198=ORIENTED_EDGE('',*,*,#151,.T.);
#199=ORIENTED_EDGE('',*,*,#152,.T.);
#200=ORIENTED_EDGE('',*,*,#153,.F.);
#201=ORIENTED_EDGE('',*,*,#152,.F.);
#202=ORIENTED_EDGE('',*,*,#154,.T.);
#203=ORIENTED_EDGE('',*,*,#155,.T.);
#204=ORIENTED_EDGE('',*,*,#156,.T.);
#205=ORIENTED_EDGE('',*,*,#151,.F.);
#206=ORIENTED_EDGE('',*,*,#154,.F.);
#207=ORIENTED_EDGE('',*,*,#156,.F.);
#208=ORIENTED_EDGE('',*,*,#157,.T.);
#209=ORIENTED_EDGE('',*,*,#158,.T.);
#210=ORIENTED_EDGE('',*,*,#159,.T.);
#211=ORIENTED_EDGE('',*,*,#155,.F.);
#212=ORIENTED_EDGE('',*,*,#157,.F.);
#213=ORIENTED_EDGE('',*,*,#159,.F.);
#214=ORIENTED_EDGE('',*,*,#158,.F.);
#215=ORIENTED_EDGE('',*,*,#147,.F.);
#216=ORIENTED_EDGE('',*,*,#153,.T.);
#217=ORIENTED_EDGE('',*,*,#150,.F.);
#218=ORIENTED_EDGE('',*,*,#148,.T.);
#219=ORIENTED_EDGE('',*,*,#144,.F.);
#220=ORIENTED_EDGE('',*,*,#145,.T.);
#221=ORIENTED_EDGE('',*,*,#142,.F.);
#222=PLANE('',#259);
#223=PLANE('',#261);
#224=PLANE('',#292);
#225=PLANE('',#293);
#226=PLANE('',#294);
#227=PLANE('',#295);
#228=ADVANCED_FACE('',(#51),#222,.T.);
#229=ADVANCED_FACE('',(#52),#223,.T.);
#230=ADVANCED_FACE('',(#53),#44,.T.);
#231=ADVANCED_FACE('',(#54),#45,.T.);
#232=ADVANCED_FACE('',(#55),#24,.T.);
#233=ADVANCED_FACE('',(#56),#25,.T.);
#234=ADVANCED_FACE('',(#57),#46,.T.);
#235=ADVANCED_FACE('',(#58),#47,.T.);
#236=ADVANCED_FACE('',(#59),#22,.F.);
#237=ADVANCED_FACE('',(#60),#23,.F.);
#238=ADVANCED_FACE('',(#61),#48,.T.);
#239=ADVANCED_FACE('',(#62),#49,.T.);
#240=ADVANCED_FACE('',(#63),#50,.T.);
#241=ADVANCED_FACE('',(#64,#14),#224,.F.);
#242=ADVANCED_FACE('',(#65,#15),#225,.T.);
#243=ADVANCED_FACE('',(#66,#16),#226,.T.);
#244=ADVANCED_FACE('',(#67,#17),#227,.T.);
#245=CLOSED_SHELL('',(#228,#229,#230,#231,#232,#233,#234,#235,#236,#237,
#238,#239,#240,#241,#242,#243,#244));
#246=DERIVED_UNIT_ELEMENT(#248,1.);
#247=DERIVED_UNIT_ELEMENT(#489,-3.);
#248=(
MASS_UNIT()
NAMED_UNIT(*)
SI_UNIT(.KILO.,.GRAM.)
);
#249=DERIVED_UNIT((#246,#247));
#250=MEASURE_REPRESENTATION_ITEM('density measure',
POSITIVE_RATIO_MEASURE(7850.),#249);
#251=PROPERTY_DEFINITION_REPRESENTATION(#256,#253);
#252=PROPERTY_DEFINITION_REPRESENTATION(#257,#254);
#253=REPRESENTATION('material name',(#255),#486);
#254=REPRESENTATION('density',(#250),#486);
#255=DESCRIPTIVE_REPRESENTATION_ITEM('Acero','Acero');
#256=PROPERTY_DEFINITION('material property','material name',#496);
#257=PROPERTY_DEFINITION('material property','density of part',#496);
#258=AXIS2_PLACEMENT_3D('',#381,#296,#297);
#259=AXIS2_PLACEMENT_3D('',#382,#298,#299);
#260=AXIS2_PLACEMENT_3D('',#384,#300,#301);
#261=AXIS2_PLACEMENT_3D('',#385,#302,#303);
#262=AXIS2_PLACEMENT_3D('',#387,#304,#305);
#263=AXIS2_PLACEMENT_3D('',#388,#306,#307);
#264=AXIS2_PLACEMENT_3D('',#391,#309,#310);
#265=AXIS2_PLACEMENT_3D('',#392,#311,#312);
#266=AXIS2_PLACEMENT_3D('',#396,#314,#315);
#267=AXIS2_PLACEMENT_3D('',#397,#316,#317);
#268=AXIS2_PLACEMENT_3D('',#398,#318,#319);
#269=AXIS2_PLACEMENT_3D('',#400,#320,#321);
#270=AXIS2_PLACEMENT_3D('',#401,#322,#323);
#271=AXIS2_PLACEMENT_3D('',#402,#324,#325);
#272=AXIS2_PLACEMENT_3D('',#404,#326,#327);
#273=AXIS2_PLACEMENT_3D('',#406,#328,#329);
#274=AXIS2_PLACEMENT_3D('',#407,#330,#331);
#275=AXIS2_PLACEMENT_3D('',#408,#332,#333);
#276=AXIS2_PLACEMENT_3D('',#411,#335,#336);
#277=AXIS2_PLACEMENT_3D('',#412,#337,#338);
#278=AXIS2_PLACEMENT_3D('',#415,#340,#341);
#279=AXIS2_PLACEMENT_3D('',#416,#342,#343);
#280=AXIS2_PLACEMENT_3D('',#418,#344,#345);
#281=AXIS2_PLACEMENT_3D('',#421,#347,#348);
#282=AXIS2_PLACEMENT_3D('',#422,#349,#350);
#283=AXIS2_PLACEMENT_3D('',#424,#351,#352);
#284=AXIS2_PLACEMENT_3D('',#427,#354,#355);
#285=AXIS2_PLACEMENT_3D('',#428,#356,#357);
#286=AXIS2_PLACEMENT_3D('',#431,#358,#359);
#287=AXIS2_PLACEMENT_3D('',#434,#361,#362);
#288=AXIS2_PLACEMENT_3D('',#435,#363,#364);
#289=AXIS2_PLACEMENT_3D('',#436,#365,#366);
#290=AXIS2_PLACEMENT_3D('',#476,#368,#369);
#291=AXIS2_PLACEMENT_3D('',#478,#370,#371);
#292=AXIS2_PLACEMENT_3D('',#480,#373,#374);
#293=AXIS2_PLACEMENT_3D('',#481,#375,#376);
#294=AXIS2_PLACEMENT_3D('',#482,#377,#378);
#295=AXIS2_PLACEMENT_3D('',#483,#379,#380);
#296=DIRECTION('axis',(0.,0.,1.));
#297=DIRECTION('refdir',(1.,0.,0.));
#298=DIRECTION('center_axis',(1.,0.,0.));
#299=DIRECTION('ref_axis',(0.,0.,-1.));
#300=DIRECTION('center_axis',(1.,0.,0.));
#301=DIRECTION('ref_axis',(0.,0.,-1.));
#302=DIRECTION('center_axis',(1.,0.,0.));
#303=DIRECTION('ref_axis',(0.,0.,-1.));
#304=DIRECTION('center_axis',(1.,0.,0.));
#305=DIRECTION('ref_axis',(0.,0.,-1.));
#306=DIRECTION('center_axis',(1.,0.,0.));
#307=DIRECTION('ref_axis',(0.,0.,-1.));
#308=DIRECTION('',(-1.,0.,0.));
#309=DIRECTION('center_axis',(1.,0.,0.));
#310=DIRECTION('ref_axis',(0.,0.,-1.));
#311=DIRECTION('center_axis',(1.,0.,0.));
#312=DIRECTION('ref_axis',(0.,0.,-1.));
#313=DIRECTION('',(-1.,0.,0.));
#314=DIRECTION('center_axis',(1.,0.,0.));
#315=DIRECTION('ref_axis',(0.,0.,-1.));
#316=DIRECTION('center_axis',(1.,0.,0.));
#317=DIRECTION('ref_axis',(0.,0.,-1.));
#318=DIRECTION('center_axis',(0.,-1.,0.));
#319=DIRECTION('ref_axis',(0.,0.,-1.));
#320=DIRECTION('center_axis',(0.,1.,0.));
#321=DIRECTION('ref_axis',(0.,0.,-1.));
#322=DIRECTION('center_axis',(0.,0.,-1.));
#323=DIRECTION('ref_axis',(-1.,0.,0.));
#324=DIRECTION('center_axis',(0.,1.,0.));
#325=DIRECTION('ref_axis',(0.,0.,1.));
#326=DIRECTION('center_axis',(0.,-1.,0.));
#327=DIRECTION('ref_axis',(0.,0.,1.));
#328=DIRECTION('center_axis',(0.,0.,1.));
#329=DIRECTION('ref_axis',(1.,0.,0.));
#330=DIRECTION('center_axis',(0.,0.,1.));
#331=DIRECTION('ref_axis',(1.,0.,0.));
#332=DIRECTION('center_axis',(0.,0.,-1.));
#333=DIRECTION('ref_axis',(-1.,0.,0.));
#334=DIRECTION('',(0.,0.,1.));
#335=DIRECTION('center_axis',(0.,0.,-1.));
#336=DIRECTION('ref_axis',(-1.,0.,0.));
#337=DIRECTION('center_axis',(0.,0.,1.));
#338=DIRECTION('ref_axis',(1.,0.,0.));
#339=DIRECTION('',(0.,0.,-1.));
#340=DIRECTION('center_axis',(0.,0.,1.));
#341=DIRECTION('ref_axis',(1.,0.,0.));
#342=DIRECTION('center_axis',(0.,0.,-1.));
#343=DIRECTION('ref_axis',(-1.,0.,0.));
#344=DIRECTION('center_axis',(0.,0.,-1.));
#345=DIRECTION('ref_axis',(-1.,0.,0.));
#346=DIRECTION('',(0.707106781186552,-8.65956056235498E-17,-0.707106781186544));
#347=DIRECTION('center_axis',(0.,0.,-1.));
#348=DIRECTION('ref_axis',(-1.,0.,0.));
#349=DIRECTION('center_axis',(0.,0.,1.));
#350=DIRECTION('ref_axis',(1.,0.,0.));
#351=DIRECTION('center_axis',(0.,0.,1.));
#352=DIRECTION('ref_axis',(1.,0.,0.));
#353=DIRECTION('',(-0.707106781186552,-8.65956056235498E-17,0.707106781186544));
#354=DIRECTION('center_axis',(0.,0.,1.));
#355=DIRECTION('ref_axis',(1.,0.,0.));
#356=DIRECTION('center_axis',(0.,0.,-1.));
#357=DIRECTION('ref_axis',(-1.,0.,0.));
#358=DIRECTION('center_axis',(0.,0.,1.));
#359=DIRECTION('ref_axis',(1.,-2.84846617096988E-16,0.));
#360=DIRECTION('',(0.,0.,1.));
#361=DIRECTION('center_axis',(0.,0.,1.));
#362=DIRECTION('ref_axis',(1.,0.,0.));
#363=DIRECTION('center_axis',(5.09861652542584E-32,-2.77555756156289E-16,
1.));
#364=DIRECTION('ref_axis',(-1.,-3.57169367469784E-16,0.));
#365=DIRECTION('center_axis',(0.,0.,-1.));
#366=DIRECTION('ref_axis',(-1.,0.,0.));
#367=DIRECTION('',(0.,0.,1.));
#368=DIRECTION('center_axis',(0.,0.,-1.));
#369=DIRECTION('ref_axis',(-1.,0.,0.));
#370=DIRECTION('center_axis',(0.,0.,1.));
#371=DIRECTION('ref_axis',(1.,0.,0.));
#372=DIRECTION('',(0.,0.,1.));
#373=DIRECTION('center_axis',(0.,0.,1.));
#374=DIRECTION('ref_axis',(1.,0.,0.));
#375=DIRECTION('center_axis',(0.,0.,1.));
#376=DIRECTION('ref_axis',(1.,0.,0.));
#377=DIRECTION('center_axis',(0.,0.,1.));
#378=DIRECTION('ref_axis',(1.,0.,0.));
#379=DIRECTION('center_axis',(0.,0.,-1.));
#380=DIRECTION('ref_axis',(-1.,0.,0.));
#381=CARTESIAN_POINT('',(0.,0.,0.));
#382=CARTESIAN_POINT('Origin',(8.00000011920929,2.77555756156289E-16,3.025));
#383=CARTESIAN_POINT('',(8.00000011920929,-6.12323399573677E-17,10.05));
#384=CARTESIAN_POINT('Origin',(8.00000011920929,0.,9.55));
#385=CARTESIAN_POINT('Origin',(8.00000011920929,2.77555756156289E-16,3.025));
#386=CARTESIAN_POINT('',(8.00000011920929,-6.12323399573676E-17,-3.));
#387=CARTESIAN_POINT('Origin',(8.00000011920929,0.,-3.5));
#388=CARTESIAN_POINT('Origin',(1.5,0.,-3.5));
#389=CARTESIAN_POINT('',(1.5,6.12323399573677E-17,-3.));
#390=CARTESIAN_POINT('',(1.5,-6.12323399573676E-17,-3.));
#391=CARTESIAN_POINT('Origin',(1.5,0.,-3.5));
#392=CARTESIAN_POINT('Origin',(1.5,0.,9.55));
#393=CARTESIAN_POINT('',(1.5,-6.12323399573677E-17,10.05));
#394=CARTESIAN_POINT('',(1.5,-6.12323399573677E-17,10.05));
#395=CARTESIAN_POINT('',(1.5,0.,9.05));
#396=CARTESIAN_POINT('Origin',(1.5,0.,9.55));
#397=CARTESIAN_POINT('Origin',(1.5,0.,9.55));
#398=CARTESIAN_POINT('Origin',(1.5,0.,-2.));
#399=CARTESIAN_POINT('',(0.5,6.12323399573676E-17,-1.99999999999999));
#400=CARTESIAN_POINT('Origin',(1.5,6.12323399573676E-17,-2.));
#401=CARTESIAN_POINT('Origin',(0.,0.,-1.99999999999999));
#402=CARTESIAN_POINT('Origin',(1.5,0.,8.05));
#403=CARTESIAN_POINT('',(0.5,0.,8.04999999999999));
#404=CARTESIAN_POINT('Origin',(1.5,-6.12323399573677E-17,8.05));
#405=CARTESIAN_POINT('',(-0.5,-6.12323399573677E-17,8.04999999999999));
#406=CARTESIAN_POINT('Origin',(0.,0.,8.04999999999999));
#407=CARTESIAN_POINT('Origin',(0.,0.,8.04999999999999));
#408=CARTESIAN_POINT('Origin',(0.,0.,1.));
#409=CARTESIAN_POINT('',(0.5,-6.12323399573676E-17,1.));
#410=CARTESIAN_POINT('',(0.5,-6.12323399573676E-17,1.));
#411=CARTESIAN_POINT('Origin',(0.,0.,1.));
#412=CARTESIAN_POINT('Origin',(0.,0.,5.05));
#413=CARTESIAN_POINT('',(-0.5,-6.12323399573677E-17,5.05));
#414=CARTESIAN_POINT('',(-0.5,-6.12323399573677E-17,5.05));
#415=CARTESIAN_POINT('Origin',(0.,0.,5.05));
#416=CARTESIAN_POINT('Origin',(0.,0.,1.));
#417=CARTESIAN_POINT('',(1.75,-2.14313189850786E-16,1.));
#418=CARTESIAN_POINT('Origin',(0.,0.,1.));
#419=CARTESIAN_POINT('',(2.75,-3.36777869765523E-16,3.46944695195361E-15));
#420=CARTESIAN_POINT('',(1.75,-2.14313189850786E-16,1.));
#421=CARTESIAN_POINT('Origin',(0.,0.,0.));
#422=CARTESIAN_POINT('Origin',(0.,0.,5.05));
#423=CARTESIAN_POINT('',(-1.75,-2.14313189850786E-16,5.05));
#424=CARTESIAN_POINT('Origin',(0.,0.,5.05));
#425=CARTESIAN_POINT('',(-2.75,-3.36777869765523E-16,6.05));
#426=CARTESIAN_POINT('',(-1.75,-2.14313189850786E-16,5.05));
#427=CARTESIAN_POINT('Origin',(0.,0.,6.05));
#428=CARTESIAN_POINT('Origin',(0.,0.,6.05));
#429=CARTESIAN_POINT('',(-4.0025,-9.80392654543769E-16,5.55));
#430=CARTESIAN_POINT('',(4.0025,2.44610425272376E-16,5.55));
#431=CARTESIAN_POINT('Origin',(0.,6.5033965841492E-16,5.55));
#432=CARTESIAN_POINT('',(4.,-4.89858719658941E-16,6.05));
#433=CARTESIAN_POINT('',(4.,-4.89858719658941E-16,6.05));
#434=CARTESIAN_POINT('Origin',(0.,0.,6.05));
#435=CARTESIAN_POINT('Origin',(-1.66533453693773E-15,4.48960030561252E-16,
5.55));
#436=CARTESIAN_POINT('Origin',(0.,0.,5.55));
#437=CARTESIAN_POINT('',(-4.0025,-9.80329762717456E-16,0.5));
#438=CARTESIAN_POINT('',(4.0025,9.80635924417243E-16,0.5));
#439=CARTESIAN_POINT('Ctrl Pts',(-4.0025,-9.80329762717456E-16,0.5));
#440=CARTESIAN_POINT('Ctrl Pts',(-4.005,-0.524253274067798,0.5));
#441=CARTESIAN_POINT('Ctrl Pts',(-3.9007605700566,-1.04830027685892,0.500000000000001));
#442=CARTESIAN_POINT('Ctrl Pts',(-3.4995144853588,-2.01699401638545,0.5));
#443=CARTESIAN_POINT('Ctrl Pts',(-3.20266570380471,-2.46125961349954,0.5));
#444=CARTESIAN_POINT('Ctrl Pts',(-2.46125961349953,-3.20266570380471,0.500000000000001));
#445=CARTESIAN_POINT('Ctrl Pts',(-2.01699401638545,-3.4995144853588,0.5));
#446=CARTESIAN_POINT('Ctrl Pts',(-1.04830027685891,-3.9007605700566,0.500000000000001));
#447=CARTESIAN_POINT('Ctrl Pts',(-0.524253274067796,-4.005,0.5));
#448=CARTESIAN_POINT('Ctrl Pts',(0.524253274067798,-4.005,0.500000000000001));
#449=CARTESIAN_POINT('Ctrl Pts',(1.04830027685892,-3.90076057005661,0.5));
#450=CARTESIAN_POINT('Ctrl Pts',(2.01699401638545,-3.4995144853588,0.500000000000001));
#451=CARTESIAN_POINT('Ctrl Pts',(2.46125961349953,-3.20266570380471,0.5));
#452=CARTESIAN_POINT('Ctrl Pts',(3.20266570380471,-2.46125961349953,0.500000000000001));
#453=CARTESIAN_POINT('Ctrl Pts',(3.4995144853588,-2.01699401638545,0.5));
#454=CARTESIAN_POINT('Ctrl Pts',(3.90076057005661,-1.04830027685891,0.5));
#455=CARTESIAN_POINT('Ctrl Pts',(4.005,-0.524253274067796,0.500000000000001));
#456=CARTESIAN_POINT('Ctrl Pts',(4.0025,9.80635924417243E-16,0.5));
#457=CARTESIAN_POINT('',(4.005,-4.90471043058515E-16,5.55));
#458=CARTESIAN_POINT('Ctrl Pts',(4.0025,9.80635924417243E-16,0.5));
#459=CARTESIAN_POINT('Ctrl Pts',(4.005,0.524253274067798,0.5));
#460=CARTESIAN_POINT('Ctrl Pts',(3.9007605700566,1.04830027685892,0.5));
#461=CARTESIAN_POINT('Ctrl Pts',(3.4995144853588,2.01699401638545,0.5));
#462=CARTESIAN_POINT('Ctrl Pts',(3.20266570380471,2.46125961349953,0.5));
#463=CARTESIAN_POINT('Ctrl Pts',(2.46125961349953,3.20266570380471,0.5));
#464=CARTESIAN_POINT('Ctrl Pts',(2.01699401638545,3.4995144853588,0.5));
#465=CARTESIAN_POINT('Ctrl Pts',(1.04830027685892,3.9007605700566,0.5));
#466=CARTESIAN_POINT('Ctrl Pts',(0.524253274067795,4.005,0.5));
#467=CARTESIAN_POINT('Ctrl Pts',(-0.524253274067798,4.005,0.5));
#468=CARTESIAN_POINT('Ctrl Pts',(-1.04830027685892,3.90076057005661,0.500000000000001));
#469=CARTESIAN_POINT('Ctrl Pts',(-2.01699401638545,3.4995144853588,0.5));
#470=CARTESIAN_POINT('Ctrl Pts',(-2.46125961349954,3.20266570380471,0.5));
#471=CARTESIAN_POINT('Ctrl Pts',(-3.20266570380472,2.46125961349953,0.5));
#472=CARTESIAN_POINT('Ctrl Pts',(-3.4995144853588,2.01699401638545,0.500000000000001));
#473=CARTESIAN_POINT('Ctrl Pts',(-3.9007605700566,1.04830027685891,0.500000000000001));
#474=CARTESIAN_POINT('Ctrl Pts',(-4.005,0.524253274067796,0.5));
#475=CARTESIAN_POINT('Ctrl Pts',(-4.0025,-9.80329762717456E-16,0.5));
#476=CARTESIAN_POINT('Origin',(0.,0.,0.5));
#477=CARTESIAN_POINT('',(4.,-4.89858719658941E-16,0.));
#478=CARTESIAN_POINT('Origin',(0.,0.,0.));
#479=CARTESIAN_POINT('',(4.,-4.89858719658941E-16,0.5));
#480=CARTESIAN_POINT('Origin',(0.,0.,0.));
#481=CARTESIAN_POINT('Origin',(0.,0.,6.05));
#482=CARTESIAN_POINT('Origin',(0.,0.,5.05));
#483=CARTESIAN_POINT('Origin',(0.,0.,1.));
#484=UNCERTAINTY_MEASURE_WITH_UNIT(LENGTH_MEASURE(0.01),#488,
'DISTANCE_ACCURACY_VALUE',
'Maximum model space distance between geometric entities at asserted c
onnectivities');
#485=UNCERTAINTY_MEASURE_WITH_UNIT(LENGTH_MEASURE(0.01),#488,
'DISTANCE_ACCURACY_VALUE',
'Maximum model space distance between geometric entities at asserted c
onnectivities');
#486=(
GEOMETRIC_REPRESENTATION_CONTEXT(3)
GLOBAL_UNCERTAINTY_ASSIGNED_CONTEXT((#484))
GLOBAL_UNIT_ASSIGNED_CONTEXT((#488,#490,#491))
REPRESENTATION_CONTEXT('','3D')
);
#487=(
GEOMETRIC_REPRESENTATION_CONTEXT(3)
GLOBAL_UNCERTAINTY_ASSIGNED_CONTEXT((#485))
GLOBAL_UNIT_ASSIGNED_CONTEXT((#488,#490,#491))
REPRESENTATION_CONTEXT('','3D')
);
#488=(
LENGTH_UNIT()
NAMED_UNIT(*)
SI_UNIT(.MILLI.,.METRE.)
);
#489=(
LENGTH_UNIT()
NAMED_UNIT(*)
SI_UNIT($,.METRE.)
);
#490=(
NAMED_UNIT(*)
PLANE_ANGLE_UNIT()
SI_UNIT($,.RADIAN.)
);
#491=(
NAMED_UNIT(*)
SI_UNIT($,.STERADIAN.)
SOLID_ANGLE_UNIT()
);
#492=SHAPE_DEFINITION_REPRESENTATION(#493,#494);
#493=PRODUCT_DEFINITION_SHAPE('',$,#496);
#494=SHAPE_REPRESENTATION('',(#258),#486);
#495=PRODUCT_DEFINITION_CONTEXT('part definition',#500,'design');
#496=PRODUCT_DEFINITION('B88069X2250S102','(Sin guardar)',#497,#495);
#497=PRODUCT_DEFINITION_FORMATION('',$,#502);
#498=PRODUCT_RELATED_PRODUCT_CATEGORY('(Sin guardar)','(Sin guardar)',(#502));
#499=APPLICATION_PROTOCOL_DEFINITION('international standard',
'automotive_design',2009,#500);
#500=APPLICATION_CONTEXT(
'Core Data for Automotive Mechanical Design Process');
#501=PRODUCT_CONTEXT('part definition',#500,'mechanical');
#502=PRODUCT('B88069X2250S102','(Sin guardar)','STEP AP214',(#501));
#503=PRESENTATION_STYLE_ASSIGNMENT((#506));
#504=PRESENTATION_STYLE_ASSIGNMENT((#507));
#505=PRESENTATION_STYLE_ASSIGNMENT((#508));
#506=SURFACE_STYLE_USAGE(.BOTH.,#509);
#507=SURFACE_STYLE_USAGE(.BOTH.,#510);
#508=SURFACE_STYLE_USAGE(.BOTH.,#511);
#509=SURFACE_SIDE_STYLE('',(#512));
#510=SURFACE_SIDE_STYLE('',(#513));
#511=SURFACE_SIDE_STYLE('',(#514));
#512=SURFACE_STYLE_FILL_AREA(#515);
#513=SURFACE_STYLE_FILL_AREA(#516);
#514=SURFACE_STYLE_FILL_AREA(#517);
#515=FILL_AREA_STYLE('Acero - Satinado',(#518));
#516=FILL_AREA_STYLE('Opaque(202,209,238)',(#519));
#517=FILL_AREA_STYLE('Opaque(0,120,255)',(#520));
#518=FILL_AREA_STYLE_COLOUR('Acero - Satinado',#521);
#519=FILL_AREA_STYLE_COLOUR('Opaque(202,209,238)',#522);
#520=FILL_AREA_STYLE_COLOUR('Opaque(0,120,255)',#523);
#521=COLOUR_RGB('Acero - Satinado',0.627450980392157,0.627450980392157,
0.627450980392157);
#522=COLOUR_RGB('Opaque(202,209,238)',0.792156862745098,0.819607843137255,
0.933333333333333);
#523=COLOUR_RGB('Opaque(0,120,255)',0.,0.470588235294118,1.);
ENDSEC;
END-ISO-10303-21;
