ISO-10303-21;
HEADER;
FILE_DESCRIPTION(('STEP AP214'),
    '1');
FILE_NAME('GDT__Bourns_2030-42T-SM_series',
    '2022-06-29T13:27:14',
    ('x3admin'),
    ('CoolPeppers LLC'),
    'ASCON STEP Converter 1.3',
    'ASCON Math Kernel',
    '');
FILE_SCHEMA(('AUTOMOTIVE_DESIGN { 1 0 10303 214 3 1 1}'));
ENDSEC;

DATA;
#1=SHAPE_REPRESENTATION('NONE',(#2),#6);
#2=AXIS2_PLACEMENT_3D('',#3,#4,#5);
#3=CARTESIAN_POINT('',(0.,0.,0.));
#4=DIRECTION('',(0.,0.,1.));
#5=DIRECTION('',(1.,0.,0.));
#6=(GEOMETRIC_REPRESENTATION_CONTEXT(3)GLOBAL_UNCERTAINTY_ASSIGNED_CONTEXT((#8))
GLOBAL_UNIT_ASSIGNED_CONTEXT((#7,#9,#10))REPRESENTATION_CONTEXT('NONE','NONE'));
#7=(LENGTH_UNIT()NAMED_UNIT(*)SI_UNIT(.MILLI.,.METRE.));
#8=UNCERTAINTY_MEASURE_WITH_UNIT(LENGTH_MEASURE(1.E-005),#7,'NONE','NONE');
#9=(NAMED_UNIT(*)PLANE_ANGLE_UNIT()SI_UNIT($,.RADIAN.));
#10=(NAMED_UNIT(*)SI_UNIT($,.STERADIAN.)SOLID_ANGLE_UNIT());
#11=SHAPE_DEFINITION_REPRESENTATION(#12,#1);
#12=PRODUCT_DEFINITION_SHAPE('NONE','NONE',#13);
#13=PRODUCT_DEFINITION('','UNSPECIFIED',#14,#22);
#14=PRODUCT_DEFINITION_FORMATION_WITH_SPECIFIED_SOURCE('ANY','UNSPECIFIED',#15,.NOT_KNOWN.);
#15=PRODUCT('','Деталь','NONE',(#25));
#16=PERSON('UNSPECIFIED','x3admin','UNSPECIFIED',('UNSPECIFIED'),('UNSPECIFIED'),
('UNSPECIFIED'));
#17=ORGANIZATION('UNSPECIFIED','CoolPeppers LLC','UNSPECIFIED');
#18=PERSON_AND_ORGANIZATION(#16,#17);
#19=PERSON_AND_ORGANIZATION_ROLE('design_owner');
#20=CC_DESIGN_PERSON_AND_ORGANIZATION_ASSIGNMENT(#18,#19,(#15));
#21=PRODUCT_RELATED_PRODUCT_CATEGORY('detail','',(#15));
#22=DESIGN_CONTEXT('detailed design',#23,'design');
#23=APPLICATION_CONTEXT('configuration controlled 3d designs of mechanical parts and assemblies');
#24=APPLICATION_PROTOCOL_DEFINITION('international standard','automotive_design',
2011,#23);
#25=MECHANICAL_CONTEXT('NONE',#23,'mechanical');
#26=CC_DESIGN_DATE_AND_TIME_ASSIGNMENT(#27,#31,(#13));
#27=DATE_AND_TIME(#28,#29);
#28=CALENDAR_DATE(0,1,1);
#29=LOCAL_TIME(0,0,0.,#30);
#30=COORDINATED_UNIVERSAL_TIME_OFFSET(0,0,.AHEAD.);
#31=DATE_TIME_ROLE('creation_date');
#32=CC_DESIGN_APPROVAL(#33,(#13));
#33=APPROVAL(#34,'UNSPECIFIED');
#34=APPROVAL_STATUS('not_yet_approved');
#35=APPROVAL_DATE_TIME(#36,#33);
#36=DATE_AND_TIME(#37,#38);
#37=CALENDAR_DATE(0,1,1);
#38=LOCAL_TIME(0,0,0.,#39);
#39=COORDINATED_UNIVERSAL_TIME_OFFSET(0,0,.AHEAD.);
#40=DERIVED_UNIT((#44,#41));
#41=DERIVED_UNIT_ELEMENT(#42,-1.);
#42=VOLUME_UNIT(#43);
#43=DIMENSIONAL_EXPONENTS(3.,0.,0.,0.,0.,0.,0.);
#44=(NAMED_UNIT($)MASS_UNIT()SI_UNIT($,.GRAM.));
#45=MANIFOLD_SOLID_BREP('',#46);
#46=CLOSED_SHELL('',(#58,#67,#76,#85,#94,#103,#112,#121,#130,#139,#148,#157,#166,
#175,#184,#193,#202,#211,#220,#229,#238,#247,#256,#265,#274,#283,#292,#301,#310,
#319,#328,#337,#346,#355,#364,#373,#382,#391,#400,#409,#418,#427,#436,#445,#454,
#463,#472,#481,#490,#499,#508,#517,#526));
#47=COLOUR_RGB($,0.564705882352941,0.564705882352941,0.564705882352941);
#48=FILL_AREA_STYLE_COLOUR($,#47);
#49=FILL_AREA_STYLE($,(#48));
#50=SURFACE_STYLE_FILL_AREA(#49);
#51=SURFACE_SIDE_STYLE('',(#50));
#52=SURFACE_STYLE_USAGE(.BOTH.,#51);
#53=PRESENTATION_STYLE_ASSIGNMENT((#52));
#54=MECHANICAL_DESIGN_GEOMETRIC_PRESENTATION_REPRESENTATION('NONE',(#55,#66,#75,
#84,#93,#102,#111,#120,#129,#138,#147,#156,#165,#174,#183,#192,#201,#210,#219,#228,
#237,#246,#255,#264,#273,#282,#291,#300,#309,#318,#327,#336,#345,#354,#363,#372,
#381,#390,#399,#408,#417,#426,#435,#444,#453,#462,#471,#480,#489,#498,#507,#516,
#525,#534),#6);
#55=STYLED_ITEM('',(#53),#45);
#56=ADVANCED_BREP_SHAPE_REPRESENTATION('NONE',(#45),#6);
#57=SHAPE_REPRESENTATION_RELATIONSHIP('','',#1,#56);
#58=ADVANCED_FACE('',(#535,#537),#539,.T.);
#59=COLOUR_RGB($,0.564705882352941,0.564705882352941,0.564705882352941);
#60=FILL_AREA_STYLE_COLOUR($,#59);
#61=FILL_AREA_STYLE($,(#60));
#62=SURFACE_STYLE_FILL_AREA(#61);
#63=SURFACE_SIDE_STYLE('',(#62));
#64=SURFACE_STYLE_USAGE(.BOTH.,#63);
#65=PRESENTATION_STYLE_ASSIGNMENT((#64));
#66=STYLED_ITEM('',(#65),#58);
#67=ADVANCED_FACE('',(#544,#546),#548,.F.);
#68=COLOUR_RGB($,0.564705882352941,0.564705882352941,0.564705882352941);
#69=FILL_AREA_STYLE_COLOUR($,#68);
#70=FILL_AREA_STYLE($,(#69));
#71=SURFACE_STYLE_FILL_AREA(#70);
#72=SURFACE_SIDE_STYLE('',(#71));
#73=SURFACE_STYLE_USAGE(.BOTH.,#72);
#74=PRESENTATION_STYLE_ASSIGNMENT((#73));
#75=STYLED_ITEM('',(#74),#67);
#76=ADVANCED_FACE('',(#553),#555,.T.);
#77=COLOUR_RGB($,0.564705882352941,0.564705882352941,0.564705882352941);
#78=FILL_AREA_STYLE_COLOUR($,#77);
#79=FILL_AREA_STYLE($,(#78));
#80=SURFACE_STYLE_FILL_AREA(#79);
#81=SURFACE_SIDE_STYLE('',(#80));
#82=SURFACE_STYLE_USAGE(.BOTH.,#81);
#83=PRESENTATION_STYLE_ASSIGNMENT((#82));
#84=STYLED_ITEM('',(#83),#76);
#85=ADVANCED_FACE('',(#560),#562,.T.);
#86=COLOUR_RGB($,0.564705882352941,0.564705882352941,0.564705882352941);
#87=FILL_AREA_STYLE_COLOUR($,#86);
#88=FILL_AREA_STYLE($,(#87));
#89=SURFACE_STYLE_FILL_AREA(#88);
#90=SURFACE_SIDE_STYLE('',(#89));
#91=SURFACE_STYLE_USAGE(.BOTH.,#90);
#92=PRESENTATION_STYLE_ASSIGNMENT((#91));
#93=STYLED_ITEM('',(#92),#85);
#94=ADVANCED_FACE('',(#567),#569,.T.);
#95=COLOUR_RGB($,0.564705882352941,0.564705882352941,0.564705882352941);
#96=FILL_AREA_STYLE_COLOUR($,#95);
#97=FILL_AREA_STYLE($,(#96));
#98=SURFACE_STYLE_FILL_AREA(#97);
#99=SURFACE_SIDE_STYLE('',(#98));
#100=SURFACE_STYLE_USAGE(.BOTH.,#99);
#101=PRESENTATION_STYLE_ASSIGNMENT((#100));
#102=STYLED_ITEM('',(#101),#94);
#103=ADVANCED_FACE('',(#574),#576,.T.);
#104=COLOUR_RGB($,0.564705882352941,0.564705882352941,0.564705882352941);
#105=FILL_AREA_STYLE_COLOUR($,#104);
#106=FILL_AREA_STYLE($,(#105));
#107=SURFACE_STYLE_FILL_AREA(#106);
#108=SURFACE_SIDE_STYLE('',(#107));
#109=SURFACE_STYLE_USAGE(.BOTH.,#108);
#110=PRESENTATION_STYLE_ASSIGNMENT((#109));
#111=STYLED_ITEM('',(#110),#103);
#112=ADVANCED_FACE('',(#581),#583,.T.);
#113=COLOUR_RGB($,0.564705882352941,0.564705882352941,0.564705882352941);
#114=FILL_AREA_STYLE_COLOUR($,#113);
#115=FILL_AREA_STYLE($,(#114));
#116=SURFACE_STYLE_FILL_AREA(#115);
#117=SURFACE_SIDE_STYLE('',(#116));
#118=SURFACE_STYLE_USAGE(.BOTH.,#117);
#119=PRESENTATION_STYLE_ASSIGNMENT((#118));
#120=STYLED_ITEM('',(#119),#112);
#121=ADVANCED_FACE('',(#588),#590,.T.);
#122=COLOUR_RGB($,0.564705882352941,0.564705882352941,0.564705882352941);
#123=FILL_AREA_STYLE_COLOUR($,#122);
#124=FILL_AREA_STYLE($,(#123));
#125=SURFACE_STYLE_FILL_AREA(#124);
#126=SURFACE_SIDE_STYLE('',(#125));
#127=SURFACE_STYLE_USAGE(.BOTH.,#126);
#128=PRESENTATION_STYLE_ASSIGNMENT((#127));
#129=STYLED_ITEM('',(#128),#121);
#130=ADVANCED_FACE('',(#595),#597,.T.);
#131=COLOUR_RGB($,0.564705882352941,0.564705882352941,0.564705882352941);
#132=FILL_AREA_STYLE_COLOUR($,#131);
#133=FILL_AREA_STYLE($,(#132));
#134=SURFACE_STYLE_FILL_AREA(#133);
#135=SURFACE_SIDE_STYLE('',(#134));
#136=SURFACE_STYLE_USAGE(.BOTH.,#135);
#137=PRESENTATION_STYLE_ASSIGNMENT((#136));
#138=STYLED_ITEM('',(#137),#130);
#139=ADVANCED_FACE('',(#602),#604,.T.);
#140=COLOUR_RGB($,0.564705882352941,0.564705882352941,0.564705882352941);
#141=FILL_AREA_STYLE_COLOUR($,#140);
#142=FILL_AREA_STYLE($,(#141));
#143=SURFACE_STYLE_FILL_AREA(#142);
#144=SURFACE_SIDE_STYLE('',(#143));
#145=SURFACE_STYLE_USAGE(.BOTH.,#144);
#146=PRESENTATION_STYLE_ASSIGNMENT((#145));
#147=STYLED_ITEM('',(#146),#139);
#148=ADVANCED_FACE('',(#609),#611,.T.);
#149=COLOUR_RGB($,0.564705882352941,0.564705882352941,0.564705882352941);
#150=FILL_AREA_STYLE_COLOUR($,#149);
#151=FILL_AREA_STYLE($,(#150));
#152=SURFACE_STYLE_FILL_AREA(#151);
#153=SURFACE_SIDE_STYLE('',(#152));
#154=SURFACE_STYLE_USAGE(.BOTH.,#153);
#155=PRESENTATION_STYLE_ASSIGNMENT((#154));
#156=STYLED_ITEM('',(#155),#148);
#157=ADVANCED_FACE('',(#616),#618,.F.);
#158=COLOUR_RGB($,0.564705882352941,0.564705882352941,0.564705882352941);
#159=FILL_AREA_STYLE_COLOUR($,#158);
#160=FILL_AREA_STYLE($,(#159));
#161=SURFACE_STYLE_FILL_AREA(#160);
#162=SURFACE_SIDE_STYLE('',(#161));
#163=SURFACE_STYLE_USAGE(.BOTH.,#162);
#164=PRESENTATION_STYLE_ASSIGNMENT((#163));
#165=STYLED_ITEM('',(#164),#157);
#166=ADVANCED_FACE('',(#623,#625),#627,.T.);
#167=COLOUR_RGB($,0.647058823529412,0.164705882352941,0.);
#168=FILL_AREA_STYLE_COLOUR($,#167);
#169=FILL_AREA_STYLE($,(#168));
#170=SURFACE_STYLE_FILL_AREA(#169);
#171=SURFACE_SIDE_STYLE('',(#170));
#172=SURFACE_STYLE_USAGE(.BOTH.,#171);
#173=PRESENTATION_STYLE_ASSIGNMENT((#172));
#174=STYLED_ITEM('',(#173),#166);
#175=ADVANCED_FACE('',(#632,#634),#636,.T.);
#176=COLOUR_RGB($,0.564705882352941,0.564705882352941,0.564705882352941);
#177=FILL_AREA_STYLE_COLOUR($,#176);
#178=FILL_AREA_STYLE($,(#177));
#179=SURFACE_STYLE_FILL_AREA(#178);
#180=SURFACE_SIDE_STYLE('',(#179));
#181=SURFACE_STYLE_USAGE(.BOTH.,#180);
#182=PRESENTATION_STYLE_ASSIGNMENT((#181));
#183=STYLED_ITEM('',(#182),#175);
#184=ADVANCED_FACE('',(#641,#643),#645,.T.);
#185=COLOUR_RGB($,0.647058823529412,0.164705882352941,0.);
#186=FILL_AREA_STYLE_COLOUR($,#185);
#187=FILL_AREA_STYLE($,(#186));
#188=SURFACE_STYLE_FILL_AREA(#187);
#189=SURFACE_SIDE_STYLE('',(#188));
#190=SURFACE_STYLE_USAGE(.BOTH.,#189);
#191=PRESENTATION_STYLE_ASSIGNMENT((#190));
#192=STYLED_ITEM('',(#191),#184);
#193=ADVANCED_FACE('',(#650,#652),#654,.T.);
#194=COLOUR_RGB($,0.564705882352941,0.564705882352941,0.564705882352941);
#195=FILL_AREA_STYLE_COLOUR($,#194);
#196=FILL_AREA_STYLE($,(#195));
#197=SURFACE_STYLE_FILL_AREA(#196);
#198=SURFACE_SIDE_STYLE('',(#197));
#199=SURFACE_STYLE_USAGE(.BOTH.,#198);
#200=PRESENTATION_STYLE_ASSIGNMENT((#199));
#201=STYLED_ITEM('',(#200),#193);
#202=ADVANCED_FACE('',(#659,#661),#663,.T.);
#203=COLOUR_RGB($,0.564705882352941,0.564705882352941,0.564705882352941);
#204=FILL_AREA_STYLE_COLOUR($,#203);
#205=FILL_AREA_STYLE($,(#204));
#206=SURFACE_STYLE_FILL_AREA(#205);
#207=SURFACE_SIDE_STYLE('',(#206));
#208=SURFACE_STYLE_USAGE(.BOTH.,#207);
#209=PRESENTATION_STYLE_ASSIGNMENT((#208));
#210=STYLED_ITEM('',(#209),#202);
#211=ADVANCED_FACE('',(#668,#670),#672,.F.);
#212=COLOUR_RGB($,0.564705882352941,0.564705882352941,0.564705882352941);
#213=FILL_AREA_STYLE_COLOUR($,#212);
#214=FILL_AREA_STYLE($,(#213));
#215=SURFACE_STYLE_FILL_AREA(#214);
#216=SURFACE_SIDE_STYLE('',(#215));
#217=SURFACE_STYLE_USAGE(.BOTH.,#216);
#218=PRESENTATION_STYLE_ASSIGNMENT((#217));
#219=STYLED_ITEM('',(#218),#211);
#220=ADVANCED_FACE('',(#677),#679,.T.);
#221=COLOUR_RGB($,0.564705882352941,0.564705882352941,0.564705882352941);
#222=FILL_AREA_STYLE_COLOUR($,#221);
#223=FILL_AREA_STYLE($,(#222));
#224=SURFACE_STYLE_FILL_AREA(#223);
#225=SURFACE_SIDE_STYLE('',(#224));
#226=SURFACE_STYLE_USAGE(.BOTH.,#225);
#227=PRESENTATION_STYLE_ASSIGNMENT((#226));
#228=STYLED_ITEM('',(#227),#220);
#229=ADVANCED_FACE('',(#684,#686),#688,.T.);
#230=COLOUR_RGB($,0.564705882352941,0.564705882352941,0.564705882352941);
#231=FILL_AREA_STYLE_COLOUR($,#230);
#232=FILL_AREA_STYLE($,(#231));
#233=SURFACE_STYLE_FILL_AREA(#232);
#234=SURFACE_SIDE_STYLE('',(#233));
#235=SURFACE_STYLE_USAGE(.BOTH.,#234);
#236=PRESENTATION_STYLE_ASSIGNMENT((#235));
#237=STYLED_ITEM('',(#236),#229);
#238=ADVANCED_FACE('',(#693,#695),#697,.T.);
#239=COLOUR_RGB($,0.564705882352941,0.564705882352941,0.564705882352941);
#240=FILL_AREA_STYLE_COLOUR($,#239);
#241=FILL_AREA_STYLE($,(#240));
#242=SURFACE_STYLE_FILL_AREA(#241);
#243=SURFACE_SIDE_STYLE('',(#242));
#244=SURFACE_STYLE_USAGE(.BOTH.,#243);
#245=PRESENTATION_STYLE_ASSIGNMENT((#244));
#246=STYLED_ITEM('',(#245),#238);
#247=ADVANCED_FACE('',(#702,#704),#706,.T.);
#248=COLOUR_RGB($,0.564705882352941,0.564705882352941,0.564705882352941);
#249=FILL_AREA_STYLE_COLOUR($,#248);
#250=FILL_AREA_STYLE($,(#249));
#251=SURFACE_STYLE_FILL_AREA(#250);
#252=SURFACE_SIDE_STYLE('',(#251));
#253=SURFACE_STYLE_USAGE(.BOTH.,#252);
#254=PRESENTATION_STYLE_ASSIGNMENT((#253));
#255=STYLED_ITEM('',(#254),#247);
#256=ADVANCED_FACE('',(#711,#713),#715,.T.);
#257=COLOUR_RGB($,0.564705882352941,0.564705882352941,0.564705882352941);
#258=FILL_AREA_STYLE_COLOUR($,#257);
#259=FILL_AREA_STYLE($,(#258));
#260=SURFACE_STYLE_FILL_AREA(#259);
#261=SURFACE_SIDE_STYLE('',(#260));
#262=SURFACE_STYLE_USAGE(.BOTH.,#261);
#263=PRESENTATION_STYLE_ASSIGNMENT((#262));
#264=STYLED_ITEM('',(#263),#256);
#265=ADVANCED_FACE('',(#720,#722),#724,.T.);
#266=COLOUR_RGB($,0.564705882352941,0.564705882352941,0.564705882352941);
#267=FILL_AREA_STYLE_COLOUR($,#266);
#268=FILL_AREA_STYLE($,(#267));
#269=SURFACE_STYLE_FILL_AREA(#268);
#270=SURFACE_SIDE_STYLE('',(#269));
#271=SURFACE_STYLE_USAGE(.BOTH.,#270);
#272=PRESENTATION_STYLE_ASSIGNMENT((#271));
#273=STYLED_ITEM('',(#272),#265);
#274=ADVANCED_FACE('',(#729,#731),#733,.T.);
#275=COLOUR_RGB($,0.564705882352941,0.564705882352941,0.564705882352941);
#276=FILL_AREA_STYLE_COLOUR($,#275);
#277=FILL_AREA_STYLE($,(#276));
#278=SURFACE_STYLE_FILL_AREA(#277);
#279=SURFACE_SIDE_STYLE('',(#278));
#280=SURFACE_STYLE_USAGE(.BOTH.,#279);
#281=PRESENTATION_STYLE_ASSIGNMENT((#280));
#282=STYLED_ITEM('',(#281),#274);
#283=ADVANCED_FACE('',(#738),#740,.T.);
#284=COLOUR_RGB($,0.564705882352941,0.564705882352941,0.564705882352941);
#285=FILL_AREA_STYLE_COLOUR($,#284);
#286=FILL_AREA_STYLE($,(#285));
#287=SURFACE_STYLE_FILL_AREA(#286);
#288=SURFACE_SIDE_STYLE('',(#287));
#289=SURFACE_STYLE_USAGE(.BOTH.,#288);
#290=PRESENTATION_STYLE_ASSIGNMENT((#289));
#291=STYLED_ITEM('',(#290),#283);
#292=ADVANCED_FACE('',(#745),#747,.T.);
#293=COLOUR_RGB($,0.564705882352941,0.564705882352941,0.564705882352941);
#294=FILL_AREA_STYLE_COLOUR($,#293);
#295=FILL_AREA_STYLE($,(#294));
#296=SURFACE_STYLE_FILL_AREA(#295);
#297=SURFACE_SIDE_STYLE('',(#296));
#298=SURFACE_STYLE_USAGE(.BOTH.,#297);
#299=PRESENTATION_STYLE_ASSIGNMENT((#298));
#300=STYLED_ITEM('',(#299),#292);
#301=ADVANCED_FACE('',(#752),#754,.T.);
#302=COLOUR_RGB($,0.564705882352941,0.564705882352941,0.564705882352941);
#303=FILL_AREA_STYLE_COLOUR($,#302);
#304=FILL_AREA_STYLE($,(#303));
#305=SURFACE_STYLE_FILL_AREA(#304);
#306=SURFACE_SIDE_STYLE('',(#305));
#307=SURFACE_STYLE_USAGE(.BOTH.,#306);
#308=PRESENTATION_STYLE_ASSIGNMENT((#307));
#309=STYLED_ITEM('',(#308),#301);
#310=ADVANCED_FACE('',(#759),#761,.T.);
#311=COLOUR_RGB($,0.564705882352941,0.564705882352941,0.564705882352941);
#312=FILL_AREA_STYLE_COLOUR($,#311);
#313=FILL_AREA_STYLE($,(#312));
#314=SURFACE_STYLE_FILL_AREA(#313);
#315=SURFACE_SIDE_STYLE('',(#314));
#316=SURFACE_STYLE_USAGE(.BOTH.,#315);
#317=PRESENTATION_STYLE_ASSIGNMENT((#316));
#318=STYLED_ITEM('',(#317),#310);
#319=ADVANCED_FACE('',(#766),#768,.T.);
#320=COLOUR_RGB($,0.564705882352941,0.564705882352941,0.564705882352941);
#321=FILL_AREA_STYLE_COLOUR($,#320);
#322=FILL_AREA_STYLE($,(#321));
#323=SURFACE_STYLE_FILL_AREA(#322);
#324=SURFACE_SIDE_STYLE('',(#323));
#325=SURFACE_STYLE_USAGE(.BOTH.,#324);
#326=PRESENTATION_STYLE_ASSIGNMENT((#325));
#327=STYLED_ITEM('',(#326),#319);
#328=ADVANCED_FACE('',(#773),#775,.T.);
#329=COLOUR_RGB($,0.564705882352941,0.564705882352941,0.564705882352941);
#330=FILL_AREA_STYLE_COLOUR($,#329);
#331=FILL_AREA_STYLE($,(#330));
#332=SURFACE_STYLE_FILL_AREA(#331);
#333=SURFACE_SIDE_STYLE('',(#332));
#334=SURFACE_STYLE_USAGE(.BOTH.,#333);
#335=PRESENTATION_STYLE_ASSIGNMENT((#334));
#336=STYLED_ITEM('',(#335),#328);
#337=ADVANCED_FACE('',(#780),#782,.T.);
#338=COLOUR_RGB($,0.564705882352941,0.564705882352941,0.564705882352941);
#339=FILL_AREA_STYLE_COLOUR($,#338);
#340=FILL_AREA_STYLE($,(#339));
#341=SURFACE_STYLE_FILL_AREA(#340);
#342=SURFACE_SIDE_STYLE('',(#341));
#343=SURFACE_STYLE_USAGE(.BOTH.,#342);
#344=PRESENTATION_STYLE_ASSIGNMENT((#343));
#345=STYLED_ITEM('',(#344),#337);
#346=ADVANCED_FACE('',(#787),#789,.T.);
#347=COLOUR_RGB($,0.564705882352941,0.564705882352941,0.564705882352941);
#348=FILL_AREA_STYLE_COLOUR($,#347);
#349=FILL_AREA_STYLE($,(#348));
#350=SURFACE_STYLE_FILL_AREA(#349);
#351=SURFACE_SIDE_STYLE('',(#350));
#352=SURFACE_STYLE_USAGE(.BOTH.,#351);
#353=PRESENTATION_STYLE_ASSIGNMENT((#352));
#354=STYLED_ITEM('',(#353),#346);
#355=ADVANCED_FACE('',(#794),#796,.F.);
#356=COLOUR_RGB($,0.564705882352941,0.564705882352941,0.564705882352941);
#357=FILL_AREA_STYLE_COLOUR($,#356);
#358=FILL_AREA_STYLE($,(#357));
#359=SURFACE_STYLE_FILL_AREA(#358);
#360=SURFACE_SIDE_STYLE('',(#359));
#361=SURFACE_STYLE_USAGE(.BOTH.,#360);
#362=PRESENTATION_STYLE_ASSIGNMENT((#361));
#363=STYLED_ITEM('',(#362),#355);
#364=ADVANCED_FACE('',(#801),#803,.F.);
#365=COLOUR_RGB($,0.564705882352941,0.564705882352941,0.564705882352941);
#366=FILL_AREA_STYLE_COLOUR($,#365);
#367=FILL_AREA_STYLE($,(#366));
#368=SURFACE_STYLE_FILL_AREA(#367);
#369=SURFACE_SIDE_STYLE('',(#368));
#370=SURFACE_STYLE_USAGE(.BOTH.,#369);
#371=PRESENTATION_STYLE_ASSIGNMENT((#370));
#372=STYLED_ITEM('',(#371),#364);
#373=ADVANCED_FACE('',(#808),#810,.F.);
#374=COLOUR_RGB($,0.564705882352941,0.564705882352941,0.564705882352941);
#375=FILL_AREA_STYLE_COLOUR($,#374);
#376=FILL_AREA_STYLE($,(#375));
#377=SURFACE_STYLE_FILL_AREA(#376);
#378=SURFACE_SIDE_STYLE('',(#377));
#379=SURFACE_STYLE_USAGE(.BOTH.,#378);
#380=PRESENTATION_STYLE_ASSIGNMENT((#379));
#381=STYLED_ITEM('',(#380),#373);
#382=ADVANCED_FACE('',(#815),#817,.T.);
#383=COLOUR_RGB($,0.564705882352941,0.564705882352941,0.564705882352941);
#384=FILL_AREA_STYLE_COLOUR($,#383);
#385=FILL_AREA_STYLE($,(#384));
#386=SURFACE_STYLE_FILL_AREA(#385);
#387=SURFACE_SIDE_STYLE('',(#386));
#388=SURFACE_STYLE_USAGE(.BOTH.,#387);
#389=PRESENTATION_STYLE_ASSIGNMENT((#388));
#390=STYLED_ITEM('',(#389),#382);
#391=ADVANCED_FACE('',(#822),#824,.F.);
#392=COLOUR_RGB($,0.564705882352941,0.564705882352941,0.564705882352941);
#393=FILL_AREA_STYLE_COLOUR($,#392);
#394=FILL_AREA_STYLE($,(#393));
#395=SURFACE_STYLE_FILL_AREA(#394);
#396=SURFACE_SIDE_STYLE('',(#395));
#397=SURFACE_STYLE_USAGE(.BOTH.,#396);
#398=PRESENTATION_STYLE_ASSIGNMENT((#397));
#399=STYLED_ITEM('',(#398),#391);
#400=ADVANCED_FACE('',(#843),#845,.F.);
#401=COLOUR_RGB($,0.564705882352941,0.564705882352941,0.564705882352941);
#402=FILL_AREA_STYLE_COLOUR($,#401);
#403=FILL_AREA_STYLE($,(#402));
#404=SURFACE_STYLE_FILL_AREA(#403);
#405=SURFACE_SIDE_STYLE('',(#404));
#406=SURFACE_STYLE_USAGE(.BOTH.,#405);
#407=PRESENTATION_STYLE_ASSIGNMENT((#406));
#408=STYLED_ITEM('',(#407),#400);
#409=ADVANCED_FACE('',(#864),#866,.T.);
#410=COLOUR_RGB($,0.564705882352941,0.564705882352941,0.564705882352941);
#411=FILL_AREA_STYLE_COLOUR($,#410);
#412=FILL_AREA_STYLE($,(#411));
#413=SURFACE_STYLE_FILL_AREA(#412);
#414=SURFACE_SIDE_STYLE('',(#413));
#415=SURFACE_STYLE_USAGE(.BOTH.,#414);
#416=PRESENTATION_STYLE_ASSIGNMENT((#415));
#417=STYLED_ITEM('',(#416),#409);
#418=ADVANCED_FACE('',(#871),#873,.T.);
#419=COLOUR_RGB($,0.564705882352941,0.564705882352941,0.564705882352941);
#420=FILL_AREA_STYLE_COLOUR($,#419);
#421=FILL_AREA_STYLE($,(#420));
#422=SURFACE_STYLE_FILL_AREA(#421);
#423=SURFACE_SIDE_STYLE('',(#422));
#424=SURFACE_STYLE_USAGE(.BOTH.,#423);
#425=PRESENTATION_STYLE_ASSIGNMENT((#424));
#426=STYLED_ITEM('',(#425),#418);
#427=ADVANCED_FACE('',(#878),#880,.T.);
#428=COLOUR_RGB($,0.564705882352941,0.564705882352941,0.564705882352941);
#429=FILL_AREA_STYLE_COLOUR($,#428);
#430=FILL_AREA_STYLE($,(#429));
#431=SURFACE_STYLE_FILL_AREA(#430);
#432=SURFACE_SIDE_STYLE('',(#431));
#433=SURFACE_STYLE_USAGE(.BOTH.,#432);
#434=PRESENTATION_STYLE_ASSIGNMENT((#433));
#435=STYLED_ITEM('',(#434),#427);
#436=ADVANCED_FACE('',(#885),#887,.F.);
#437=COLOUR_RGB($,0.564705882352941,0.564705882352941,0.564705882352941);
#438=FILL_AREA_STYLE_COLOUR($,#437);
#439=FILL_AREA_STYLE($,(#438));
#440=SURFACE_STYLE_FILL_AREA(#439);
#441=SURFACE_SIDE_STYLE('',(#440));
#442=SURFACE_STYLE_USAGE(.BOTH.,#441);
#443=PRESENTATION_STYLE_ASSIGNMENT((#442));
#444=STYLED_ITEM('',(#443),#436);
#445=ADVANCED_FACE('',(#906),#908,.T.);
#446=COLOUR_RGB($,0.564705882352941,0.564705882352941,0.564705882352941);
#447=FILL_AREA_STYLE_COLOUR($,#446);
#448=FILL_AREA_STYLE($,(#447));
#449=SURFACE_STYLE_FILL_AREA(#448);
#450=SURFACE_SIDE_STYLE('',(#449));
#451=SURFACE_STYLE_USAGE(.BOTH.,#450);
#452=PRESENTATION_STYLE_ASSIGNMENT((#451));
#453=STYLED_ITEM('',(#452),#445);
#454=ADVANCED_FACE('',(#913),#915,.T.);
#455=COLOUR_RGB($,0.564705882352941,0.564705882352941,0.564705882352941);
#456=FILL_AREA_STYLE_COLOUR($,#455);
#457=FILL_AREA_STYLE($,(#456));
#458=SURFACE_STYLE_FILL_AREA(#457);
#459=SURFACE_SIDE_STYLE('',(#458));
#460=SURFACE_STYLE_USAGE(.BOTH.,#459);
#461=PRESENTATION_STYLE_ASSIGNMENT((#460));
#462=STYLED_ITEM('',(#461),#454);
#463=ADVANCED_FACE('',(#920),#922,.T.);
#464=COLOUR_RGB($,0.564705882352941,0.564705882352941,0.564705882352941);
#465=FILL_AREA_STYLE_COLOUR($,#464);
#466=FILL_AREA_STYLE($,(#465));
#467=SURFACE_STYLE_FILL_AREA(#466);
#468=SURFACE_SIDE_STYLE('',(#467));
#469=SURFACE_STYLE_USAGE(.BOTH.,#468);
#470=PRESENTATION_STYLE_ASSIGNMENT((#469));
#471=STYLED_ITEM('',(#470),#463);
#472=ADVANCED_FACE('',(#927),#929,.F.);
#473=COLOUR_RGB($,0.564705882352941,0.564705882352941,0.564705882352941);
#474=FILL_AREA_STYLE_COLOUR($,#473);
#475=FILL_AREA_STYLE($,(#474));
#476=SURFACE_STYLE_FILL_AREA(#475);
#477=SURFACE_SIDE_STYLE('',(#476));
#478=SURFACE_STYLE_USAGE(.BOTH.,#477);
#479=PRESENTATION_STYLE_ASSIGNMENT((#478));
#480=STYLED_ITEM('',(#479),#472);
#481=ADVANCED_FACE('',(#948),#950,.T.);
#482=COLOUR_RGB($,0.564705882352941,0.564705882352941,0.564705882352941);
#483=FILL_AREA_STYLE_COLOUR($,#482);
#484=FILL_AREA_STYLE($,(#483));
#485=SURFACE_STYLE_FILL_AREA(#484);
#486=SURFACE_SIDE_STYLE('',(#485));
#487=SURFACE_STYLE_USAGE(.BOTH.,#486);
#488=PRESENTATION_STYLE_ASSIGNMENT((#487));
#489=STYLED_ITEM('',(#488),#481);
#490=ADVANCED_FACE('',(#955),#957,.T.);
#491=COLOUR_RGB($,0.564705882352941,0.564705882352941,0.564705882352941);
#492=FILL_AREA_STYLE_COLOUR($,#491);
#493=FILL_AREA_STYLE($,(#492));
#494=SURFACE_STYLE_FILL_AREA(#493);
#495=SURFACE_SIDE_STYLE('',(#494));
#496=SURFACE_STYLE_USAGE(.BOTH.,#495);
#497=PRESENTATION_STYLE_ASSIGNMENT((#496));
#498=STYLED_ITEM('',(#497),#490);
#499=ADVANCED_FACE('',(#962),#964,.T.);
#500=COLOUR_RGB($,0.564705882352941,0.564705882352941,0.564705882352941);
#501=FILL_AREA_STYLE_COLOUR($,#500);
#502=FILL_AREA_STYLE($,(#501));
#503=SURFACE_STYLE_FILL_AREA(#502);
#504=SURFACE_SIDE_STYLE('',(#503));
#505=SURFACE_STYLE_USAGE(.BOTH.,#504);
#506=PRESENTATION_STYLE_ASSIGNMENT((#505));
#507=STYLED_ITEM('',(#506),#499);
#508=ADVANCED_FACE('',(#969),#971,.F.);
#509=COLOUR_RGB($,0.564705882352941,0.564705882352941,0.564705882352941);
#510=FILL_AREA_STYLE_COLOUR($,#509);
#511=FILL_AREA_STYLE($,(#510));
#512=SURFACE_STYLE_FILL_AREA(#511);
#513=SURFACE_SIDE_STYLE('',(#512));
#514=SURFACE_STYLE_USAGE(.BOTH.,#513);
#515=PRESENTATION_STYLE_ASSIGNMENT((#514));
#516=STYLED_ITEM('',(#515),#508);
#517=ADVANCED_FACE('',(#990),#992,.T.);
#518=COLOUR_RGB($,0.564705882352941,0.564705882352941,0.564705882352941);
#519=FILL_AREA_STYLE_COLOUR($,#518);
#520=FILL_AREA_STYLE($,(#519));
#521=SURFACE_STYLE_FILL_AREA(#520);
#522=SURFACE_SIDE_STYLE('',(#521));
#523=SURFACE_STYLE_USAGE(.BOTH.,#522);
#524=PRESENTATION_STYLE_ASSIGNMENT((#523));
#525=STYLED_ITEM('',(#524),#517);
#526=ADVANCED_FACE('',(#997),#999,.T.);
#527=COLOUR_RGB($,0.564705882352941,0.564705882352941,0.564705882352941);
#528=FILL_AREA_STYLE_COLOUR($,#527);
#529=FILL_AREA_STYLE($,(#528));
#530=SURFACE_STYLE_FILL_AREA(#529);
#531=SURFACE_SIDE_STYLE('',(#530));
#532=SURFACE_STYLE_USAGE(.BOTH.,#531);
#533=PRESENTATION_STYLE_ASSIGNMENT((#532));
#534=STYLED_ITEM('',(#533),#526);
#535=FACE_BOUND('',#536,.T.);
#536=EDGE_LOOP('',(#1004,#1005,#1006,#1007,#1008,#1009,#1010,#1011));
#537=FACE_BOUND('',#538,.T.);
#538=EDGE_LOOP('',(#1012));
#539=PLANE('',#540);
#540=AXIS2_PLACEMENT_3D('',#541,#542,#543);
#541=CARTESIAN_POINT('',(0.,0.,-3.));
#542=DIRECTION('',(-0.,0.,-1.));
#543=DIRECTION('',(-1.,-0.,0.));
#544=FACE_OUTER_BOUND('',#545,.T.);
#545=EDGE_LOOP('',(#1013));
#546=FACE_OUTER_BOUND('',#547,.T.);
#547=EDGE_LOOP('',(#1014));
#548=CYLINDRICAL_SURFACE('',#549,1.);
#549=AXIS2_PLACEMENT_3D('',#550,#551,#552);
#550=CARTESIAN_POINT('',(0.,0.,-2.7));
#551=DIRECTION('',(0.,0.,-1.));
#552=DIRECTION('',(-1.,0.,0.));
#553=FACE_BOUND('',#554,.T.);
#554=EDGE_LOOP('',(#1015,#1016,#1017,#1018));
#555=CYLINDRICAL_SURFACE('',#556,1.);
#556=AXIS2_PLACEMENT_3D('',#557,#558,#559);
#557=CARTESIAN_POINT('',(1.5,1.5,1.));
#558=DIRECTION('',(-0.,0.,1.));
#559=DIRECTION('',(1.,0.,0.));
#560=FACE_BOUND('',#561,.T.);
#561=EDGE_LOOP('',(#1019,#1020,#1021,#1022,#1023,#1024));
#562=PLANE('',#563);
#563=AXIS2_PLACEMENT_3D('',#564,#565,#566);
#564=CARTESIAN_POINT('',(2.5,2.5,-2.5));
#565=DIRECTION('',(1.,0.,0.));
#566=DIRECTION('',(0.,-1.,0.));
#567=FACE_BOUND('',#568,.T.);
#568=EDGE_LOOP('',(#1025,#1026,#1027,#1028));
#569=CYLINDRICAL_SURFACE('',#570,1.);
#570=AXIS2_PLACEMENT_3D('',#571,#572,#573);
#571=CARTESIAN_POINT('',(1.5,-1.5,1.));
#572=DIRECTION('',(-0.,0.,1.));
#573=DIRECTION('',(0.,-1.,0.));
#574=FACE_BOUND('',#575,.T.);
#575=EDGE_LOOP('',(#1029,#1030,#1031,#1032,#1033,#1034));
#576=PLANE('',#577);
#577=AXIS2_PLACEMENT_3D('',#578,#579,#580);
#578=CARTESIAN_POINT('',(2.5,-2.5,-2.5));
#579=DIRECTION('',(-0.,-1.,-0.));
#580=DIRECTION('',(-1.,0.,0.));
#581=FACE_BOUND('',#582,.T.);
#582=EDGE_LOOP('',(#1035,#1036,#1037,#1038));
#583=CYLINDRICAL_SURFACE('',#584,1.);
#584=AXIS2_PLACEMENT_3D('',#585,#586,#587);
#585=CARTESIAN_POINT('',(-1.5,-1.5,1.));
#586=DIRECTION('',(-0.,0.,1.));
#587=DIRECTION('',(-1.,0.,0.));
#588=FACE_BOUND('',#589,.T.);
#589=EDGE_LOOP('',(#1039,#1040,#1041,#1042,#1043,#1044,#1045));
#590=PLANE('',#591);
#591=AXIS2_PLACEMENT_3D('',#592,#593,#594);
#592=CARTESIAN_POINT('',(-2.5,-2.5,-2.5));
#593=DIRECTION('',(-1.,0.,0.));
#594=DIRECTION('',(0.,1.,0.));
#595=FACE_BOUND('',#596,.T.);
#596=EDGE_LOOP('',(#1046,#1047,#1048,#1049));
#597=CYLINDRICAL_SURFACE('',#598,1.);
#598=AXIS2_PLACEMENT_3D('',#599,#600,#601);
#599=CARTESIAN_POINT('',(-1.5,1.5,1.));
#600=DIRECTION('',(-0.,0.,1.));
#601=DIRECTION('',(0.,1.,0.));
#602=FACE_BOUND('',#603,.T.);
#603=EDGE_LOOP('',(#1050,#1051,#1052,#1053,#1054,#1055));
#604=PLANE('',#605);
#605=AXIS2_PLACEMENT_3D('',#606,#607,#608);
#606=CARTESIAN_POINT('',(-2.5,2.5,-2.5));
#607=DIRECTION('',(-0.,1.,0.));
#608=DIRECTION('',(1.,0.,0.));
#609=FACE_BOUND('',#610,.T.);
#610=EDGE_LOOP('',(#1056));
#611=PLANE('',#612);
#612=AXIS2_PLACEMENT_3D('',#613,#614,#615);
#613=CARTESIAN_POINT('',(0.,0.,-2.7));
#614=DIRECTION('',(-0.,0.,-1.));
#615=DIRECTION('',(-1.,-0.,0.));
#616=FACE_BOUND('',#617,.T.);
#617=EDGE_LOOP('',(#1057,#1058,#1059,#1060));
#618=PLANE('',#619);
#619=AXIS2_PLACEMENT_3D('',#620,#621,#622);
#620=CARTESIAN_POINT('',(0.,0.,-2.5));
#621=DIRECTION('',(-0.,0.,-1.));
#622=DIRECTION('',(-1.,-0.,0.));
#623=FACE_BOUND('',#624,.T.);
#624=EDGE_LOOP('',(#1061,#1062));
#625=FACE_BOUND('',#626,.T.);
#626=EDGE_LOOP('',(#1063,#1064,#1065,#1066,#1067,#1068,#1069,#1070,#1071));
#627=CYLINDRICAL_SURFACE('',#628,2.4);
#628=AXIS2_PLACEMENT_3D('',#629,#630,#631);
#629=CARTESIAN_POINT('',(0.,0.,0.));
#630=DIRECTION('',(0.,0.,-1.));
#631=DIRECTION('',(-1.,0.,0.));
#632=FACE_OUTER_BOUND('',#633,.T.);
#633=EDGE_LOOP('',(#1072));
#634=FACE_OUTER_BOUND('',#635,.T.);
#635=EDGE_LOOP('',(#1073));
#636=CYLINDRICAL_SURFACE('',#637,2.5);
#637=AXIS2_PLACEMENT_3D('',#638,#639,#640);
#638=CARTESIAN_POINT('',(0.,0.,0.));
#639=DIRECTION('',(0.,0.,1.));
#640=DIRECTION('',(1.,0.,0.));
#641=FACE_OUTER_BOUND('',#642,.T.);
#642=EDGE_LOOP('',(#1074));
#643=FACE_OUTER_BOUND('',#644,.T.);
#644=EDGE_LOOP('',(#1075));
#645=CYLINDRICAL_SURFACE('',#646,2.4);
#646=AXIS2_PLACEMENT_3D('',#647,#648,#649);
#647=CARTESIAN_POINT('',(0.,0.,1.3));
#648=DIRECTION('',(0.,0.,1.));
#649=DIRECTION('',(1.,0.,0.));
#650=FACE_OUTER_BOUND('',#651,.T.);
#651=EDGE_LOOP('',(#1076));
#652=FACE_OUTER_BOUND('',#653,.T.);
#653=EDGE_LOOP('',(#1077));
#654=CYLINDRICAL_SURFACE('',#655,2.5);
#655=AXIS2_PLACEMENT_3D('',#656,#657,#658);
#656=CARTESIAN_POINT('',(0.,0.,3.8));
#657=DIRECTION('',(0.,0.,1.));
#658=DIRECTION('',(1.,0.,0.));
#659=FACE_BOUND('',#660,.T.);
#660=EDGE_LOOP('',(#1078));
#661=FACE_BOUND('',#662,.T.);
#662=EDGE_LOOP('',(#1079));
#663=PLANE('',#664);
#664=AXIS2_PLACEMENT_3D('',#665,#666,#667);
#665=CARTESIAN_POINT('',(0.,0.,4.5));
#666=DIRECTION('',(0.,0.,1.));
#667=DIRECTION('',(1.,0.,0.));
#668=FACE_OUTER_BOUND('',#669,.T.);
#669=EDGE_LOOP('',(#1080));
#670=FACE_OUTER_BOUND('',#671,.T.);
#671=EDGE_LOOP('',(#1081));
#672=CYLINDRICAL_SURFACE('',#673,1.);
#673=AXIS2_PLACEMENT_3D('',#674,#675,#676);
#674=CARTESIAN_POINT('',(0.,0.,4.2));
#675=DIRECTION('',(0.,0.,1.));
#676=DIRECTION('',(1.,0.,0.));
#677=FACE_BOUND('',#678,.T.);
#678=EDGE_LOOP('',(#1082));
#679=PLANE('',#680);
#680=AXIS2_PLACEMENT_3D('',#681,#682,#683);
#681=CARTESIAN_POINT('',(0.,0.,4.2));
#682=DIRECTION('',(0.,0.,1.));
#683=DIRECTION('',(1.,0.,0.));
#684=FACE_OUTER_BOUND('',#685,.T.);
#685=EDGE_LOOP('',(#1083));
#686=FACE_BOUND('',#687,.T.);
#687=EDGE_LOOP('',(#1084,#1085));
#688=TOROIDAL_SURFACE('',#689,2.3,0.2);
#689=AXIS2_PLACEMENT_3D('',#690,#691,#692);
#690=CARTESIAN_POINT('',(0.,0.,0.173205080756894));
#691=DIRECTION('',(0.,0.,1.));
#692=DIRECTION('',(1.,-1.20980294963545E-015,0.));
#693=FACE_OUTER_BOUND('',#694,.T.);
#694=EDGE_LOOP('',(#1086));
#695=FACE_OUTER_BOUND('',#696,.T.);
#696=EDGE_LOOP('',(#1087));
#697=TOROIDAL_SURFACE('',#698,2.3,0.2);
#698=AXIS2_PLACEMENT_3D('',#699,#700,#701);
#699=CARTESIAN_POINT('',(0.,0.,1.12679491924311));
#700=DIRECTION('',(0.,0.,1.));
#701=DIRECTION('',(1.,0.,0.));
#702=FACE_OUTER_BOUND('',#703,.T.);
#703=EDGE_LOOP('',(#1088));
#704=FACE_OUTER_BOUND('',#705,.T.);
#705=EDGE_LOOP('',(#1089));
#706=TOROIDAL_SURFACE('',#707,2.3,0.2);
#707=AXIS2_PLACEMENT_3D('',#708,#709,#710);
#708=CARTESIAN_POINT('',(0.,0.,3.97320508075689));
#709=DIRECTION('',(0.,0.,1.));
#710=DIRECTION('',(1.,0.,0.));
#711=FACE_OUTER_BOUND('',#712,.T.);
#712=EDGE_LOOP('',(#1090));
#713=FACE_OUTER_BOUND('',#714,.T.);
#714=EDGE_LOOP('',(#1091));
#715=TOROIDAL_SURFACE('',#716,2.3,0.2);
#716=AXIS2_PLACEMENT_3D('',#717,#718,#719);
#717=CARTESIAN_POINT('',(0.,0.,4.3));
#718=DIRECTION('',(0.,0.,1.));
#719=DIRECTION('',(1.,0.,0.));
#720=FACE_OUTER_BOUND('',#721,.T.);
#721=EDGE_LOOP('',(#1092));
#722=FACE_OUTER_BOUND('',#723,.T.);
#723=EDGE_LOOP('',(#1093));
#724=TOROIDAL_SURFACE('',#725,1.2,0.2);
#725=AXIS2_PLACEMENT_3D('',#726,#727,#728);
#726=CARTESIAN_POINT('',(0.,0.,-2.8));
#727=DIRECTION('',(-0.,0.,-1.));
#728=DIRECTION('',(-1.,0.,0.));
#729=FACE_OUTER_BOUND('',#730,.T.);
#730=EDGE_LOOP('',(#1094));
#731=FACE_OUTER_BOUND('',#732,.T.);
#732=EDGE_LOOP('',(#1095));
#733=TOROIDAL_SURFACE('',#734,1.2,0.2);
#734=AXIS2_PLACEMENT_3D('',#735,#736,#737);
#735=CARTESIAN_POINT('',(0.,0.,4.3));
#736=DIRECTION('',(0.,0.,1.));
#737=DIRECTION('',(1.,0.,0.));
#738=FACE_BOUND('',#739,.T.);
#739=EDGE_LOOP('',(#1096,#1097,#1098,#1099));
#740=CYLINDRICAL_SURFACE('',#741,0.2);
#741=AXIS2_PLACEMENT_3D('',#742,#743,#744);
#742=CARTESIAN_POINT('',(-2.3,-2.3,-2.8));
#743=DIRECTION('',(0.,1.,-0.));
#744=DIRECTION('',(0.,0.,-1.));
#745=FACE_BOUND('',#746,.T.);
#746=EDGE_LOOP('',(#1100,#1101,#1102,#1103));
#747=TOROIDAL_SURFACE('',#748,0.8,0.2);
#748=AXIS2_PLACEMENT_3D('',#749,#750,#751);
#749=CARTESIAN_POINT('',(-1.5,1.5,-2.8));
#750=DIRECTION('',(-0.,0.,-1.));
#751=DIRECTION('',(-0.877582561890373,-0.479425538604203,0.));
#752=FACE_BOUND('',#753,.T.);
#753=EDGE_LOOP('',(#1104,#1105,#1106,#1107));
#754=CYLINDRICAL_SURFACE('',#755,0.2);
#755=AXIS2_PLACEMENT_3D('',#756,#757,#758);
#756=CARTESIAN_POINT('',(-2.3,2.3,-2.8));
#757=DIRECTION('',(1.,-0.,-0.));
#758=DIRECTION('',(0.,0.,-1.));
#759=FACE_BOUND('',#760,.T.);
#760=EDGE_LOOP('',(#1108,#1109,#1110,#1111));
#761=TOROIDAL_SURFACE('',#762,0.8,0.2);
#762=AXIS2_PLACEMENT_3D('',#763,#764,#765);
#763=CARTESIAN_POINT('',(1.5,1.5,-2.8));
#764=DIRECTION('',(-0.,0.,-1.));
#765=DIRECTION('',(-0.479425538604203,0.877582561890373,0.));
#766=FACE_BOUND('',#767,.T.);
#767=EDGE_LOOP('',(#1112,#1113,#1114,#1115));
#768=CYLINDRICAL_SURFACE('',#769,0.2);
#769=AXIS2_PLACEMENT_3D('',#770,#771,#772);
#770=CARTESIAN_POINT('',(2.3,2.3,-2.8));
#771=DIRECTION('',(0.,-1.,-0.));
#772=DIRECTION('',(0.,0.,-1.));
#773=FACE_BOUND('',#774,.T.);
#774=EDGE_LOOP('',(#1116,#1117,#1118,#1119));
#775=TOROIDAL_SURFACE('',#776,0.8,0.2);
#776=AXIS2_PLACEMENT_3D('',#777,#778,#779);
#777=CARTESIAN_POINT('',(1.5,-1.5,-2.8));
#778=DIRECTION('',(-0.,0.,-1.));
#779=DIRECTION('',(0.877582561890373,0.479425538604203,0.));
#780=FACE_BOUND('',#781,.T.);
#781=EDGE_LOOP('',(#1120,#1121,#1122,#1123));
#782=CYLINDRICAL_SURFACE('',#783,0.2);
#783=AXIS2_PLACEMENT_3D('',#784,#785,#786);
#784=CARTESIAN_POINT('',(2.3,-2.3,-2.8));
#785=DIRECTION('',(-1.,-0.,-0.));
#786=DIRECTION('',(0.,2.22044604925031E-015,-1.));
#787=FACE_BOUND('',#788,.T.);
#788=EDGE_LOOP('',(#1124,#1125,#1126,#1127));
#789=TOROIDAL_SURFACE('',#790,0.8,0.2);
#790=AXIS2_PLACEMENT_3D('',#791,#792,#793);
#791=CARTESIAN_POINT('',(-1.5,-1.5,-2.8));
#792=DIRECTION('',(-0.,0.,-1.));
#793=DIRECTION('',(0.479425538604203,-0.877582561890373,0.));
#794=FACE_BOUND('',#795,.T.);
#795=EDGE_LOOP('',(#1128,#1129,#1130,#1131));
#796=PLANE('',#797);
#797=AXIS2_PLACEMENT_3D('',#798,#799,#800);
#798=CARTESIAN_POINT('',(0.,0.,-2.5));
#799=DIRECTION('',(-0.,0.,-1.));
#800=DIRECTION('',(-1.,-0.,0.));
#801=FACE_BOUND('',#802,.T.);
#802=EDGE_LOOP('',(#1132,#1133,#1134,#1135));
#803=PLANE('',#804);
#804=AXIS2_PLACEMENT_3D('',#805,#806,#807);
#805=CARTESIAN_POINT('',(0.,0.,-2.5));
#806=DIRECTION('',(-0.,0.,-1.));
#807=DIRECTION('',(-1.,-0.,0.));
#808=FACE_BOUND('',#809,.T.);
#809=EDGE_LOOP('',(#1136,#1137,#1138,#1139));
#810=PLANE('',#811);
#811=AXIS2_PLACEMENT_3D('',#812,#813,#814);
#812=CARTESIAN_POINT('',(0.,0.,-2.5));
#813=DIRECTION('',(-0.,0.,-1.));
#814=DIRECTION('',(-1.,-0.,0.));
#815=FACE_BOUND('',#816,.T.);
#816=EDGE_LOOP('',(#1140,#1141,#1142,#1143));
#817=CYLINDRICAL_SURFACE('',#818,0.2);
#818=AXIS2_PLACEMENT_3D('',#819,#820,#821);
#819=CARTESIAN_POINT('',(-2.3,-2.3,-2.7));
#820=DIRECTION('',(-0.,-1.,0.));
#821=DIRECTION('',(0.,0.,1.));
#822=FACE_BOUND('',#823,.T.);
#823=EDGE_LOOP('',(#1144,#1145,#1146,#1147));
#824=(BOUNDED_SURFACE()B_SPLINE_SURFACE(3,2,(
(#825,#826,#827),
(#828,#829,#830),
(#831,#832,#833),
(#834,#835,#836),
(#837,#838,#839),
(#840,#841,#842)),
.UNSPECIFIED.,.F.,.F.,.F.)B_SPLINE_SURFACE_WITH_KNOTS((4,1,1,4),
(3,3),
(-4.29651810003251E-006,0.125679409625492,0.188525559215388,0.289691160113235),
(0.,1.),
.UNSPECIFIED.)GEOMETRIC_REPRESENTATION_ITEM()RATIONAL_B_SPLINE_SURFACE((
(1.,0.707101763417928,1.),
(1.,0.757854772251134,1.),
(1.,0.81094477333654,1.),
(1.,0.856414360851202,1.),
(1.,0.866050235561398,1.),
(1.,0.866025461034509,1.)))REPRESENTATION_ITEM('')SURFACE());
#825=CARTESIAN_POINT('',(-2.5,-0.685575409267517,-2.70000024718407));
#826=CARTESIAN_POINT('',(-2.50000000777047,-0.685575346639828,-2.49999717791793));
#827=CARTESIAN_POINT('',(-2.29999705443436,-0.685575342025405,-2.5));
#828=CARTESIAN_POINT('',(-2.5,-0.589029396383048,-2.69891278193098));
#829=CARTESIAN_POINT('',(-2.49991250208775,-0.595348959471436,-2.52644970544465));
#830=CARTESIAN_POINT('',(-2.32872368338101,-0.589217877646401,-2.5));
#831=CARTESIAN_POINT('',(-2.5,-0.44198034828164,-2.69134141842938));
#832=CARTESIAN_POINT('',(-2.50000113695055,-0.446923543430303,-2.54665015073982));
#833=CARTESIAN_POINT('',(-2.36270471099442,-0.441967518246811,-2.5));
#834=CARTESIAN_POINT('',(-2.5,-0.212172676191243,-2.67760444122334));
#835=CARTESIAN_POINT('',(-2.500053996154,-0.214559262911843,-2.55681839073587));
#836=CARTESIAN_POINT('',(-2.39335698649051,-0.212131612061212,-2.5));
#837=CARTESIAN_POINT('',(-2.5,-0.0809116176904442,-2.6730591957516));
#838=CARTESIAN_POINT('',(-2.49998257514933,-0.0809118128821224,-2.55765132158567));
#839=CARTESIAN_POINT('',(-2.40000179438951,-0.0809237004136856,-2.5));
#840=CARTESIAN_POINT('',(-2.5,1.00014300672413E-005,-2.67320501550825));
#841=CARTESIAN_POINT('',(-2.49999998610477,9.99985827310544E-006,-2.5577350085608));
#842=CARTESIAN_POINT('',(-2.39999999997917,9.99867867586488E-006,-2.5));
#843=FACE_BOUND('',#844,.T.);
#844=EDGE_LOOP('',(#1148,#1149,#1150,#1151));
#845=(BOUNDED_SURFACE()B_SPLINE_SURFACE(3,2,(
(#846,#847,#848),
(#849,#850,#851),
(#852,#853,#854),
(#855,#856,#857),
(#858,#859,#860),
(#861,#862,#863)),
.UNSPECIFIED.,.F.,.F.,.F.)B_SPLINE_SURFACE_WITH_KNOTS((4,1,1,4),
(3,3),
(-4.16553215474359E-006,0.125679540611437,0.188525559215388,0.289691292872723),
(0.,1.),
.UNSPECIFIED.)GEOMETRIC_REPRESENTATION_ITEM()RATIONAL_B_SPLINE_SURFACE((
(1.,0.866025576771858,1.),
(1.,0.865663866161055,1.),
(1.,0.85253122378227,1.),
(1.,0.797990070909906,1.),
(1.,0.747808464837091,1.),
(1.,0.707101614851951,1.)))REPRESENTATION_ITEM('')SURFACE());
#846=CARTESIAN_POINT('',(-2.5,-1.00030365381976E-005,-2.6732049312777));
#847=CARTESIAN_POINT('',(-2.4999999666003,-9.99940608095868E-006,-2.55773498591797));
#848=CARTESIAN_POINT('',(-2.39999999997918,-9.9972771713557E-006,-2.5));
#849=CARTESIAN_POINT('',(-2.5,0.100606981698039,-2.67342608542228));
#850=CARTESIAN_POINT('',(-2.50009720224379,0.100518096364833,-2.5576765061376));
#851=CARTESIAN_POINT('',(-2.40000494396368,0.100538364735627,-2.5));
#852=CARTESIAN_POINT('',(-2.5,0.251372432308667,-2.67960357939677));
#853=CARTESIAN_POINT('',(-2.50002606083328,0.255446731429325,-2.55660090300633));
#854=CARTESIAN_POINT('',(-2.3905076832199,0.251359979237216,-2.5));
#855=CARTESIAN_POINT('',(-2.5,0.480325163041547,-2.69340274643945));
#856=CARTESIAN_POINT('',(-2.49995295893464,0.484869231287817,-2.54219411286672));
#857=CARTESIAN_POINT('',(-2.35422961589359,0.480375280430686,-2.5));
#858=CARTESIAN_POINT('',(-2.5,0.608028677038398,-2.70004699173527));
#859=CARTESIAN_POINT('',(-2.50001602290535,0.612155100964188,-2.52188565542232));
#860=CARTESIAN_POINT('',(-2.3231176983994,0.608014333158425,-2.5));
#861=CARTESIAN_POINT('',(-2.5,0.685575379460661,-2.70000012161033));
#862=CARTESIAN_POINT('',(-2.50000000131788,0.68557534813198,-2.4999971125242));
#863=CARTESIAN_POINT('',(-2.29999705281812,0.685575347447657,-2.5));
#864=FACE_BOUND('',#865,.T.);
#865=EDGE_LOOP('',(#1152,#1153,#1154,#1155));
#866=CYLINDRICAL_SURFACE('',#867,0.2);
#867=AXIS2_PLACEMENT_3D('',#868,#869,#870);
#868=CARTESIAN_POINT('',(-2.3,-2.3,-2.7));
#869=DIRECTION('',(-0.,-1.,0.));
#870=DIRECTION('',(0.,0.,1.));
#871=FACE_BOUND('',#872,.T.);
#872=EDGE_LOOP('',(#1156,#1157,#1158,#1159));
#873=TOROIDAL_SURFACE('',#874,0.8,0.2);
#874=AXIS2_PLACEMENT_3D('',#875,#876,#877);
#875=CARTESIAN_POINT('',(-1.5,1.5,-2.7));
#876=DIRECTION('',(0.,-0.,1.));
#877=DIRECTION('',(0.479425538604203,0.877582561890373,0.));
#878=FACE_BOUND('',#879,.T.);
#879=EDGE_LOOP('',(#1160,#1161,#1162,#1163));
#880=CYLINDRICAL_SURFACE('',#881,0.2);
#881=AXIS2_PLACEMENT_3D('',#882,#883,#884);
#882=CARTESIAN_POINT('',(-2.3,2.3,-2.7));
#883=DIRECTION('',(-1.,0.,0.));
#884=DIRECTION('',(0.,0.,1.));
#885=FACE_BOUND('',#886,.T.);
#886=EDGE_LOOP('',(#1164,#1165,#1166,#1167));
#887=(BOUNDED_SURFACE()B_SPLINE_SURFACE(3,2,(
(#888,#889,#890),
(#891,#892,#893),
(#894,#895,#896),
(#897,#898,#899),
(#900,#901,#902),
(#903,#904,#905)),
.UNSPECIFIED.,.F.,.F.,.F.)B_SPLINE_SURFACE_WITH_KNOTS((4,1,1,4),
(3,3),
(-4.29651811858677E-006,0.250683706143592,0.37568800266171,0.579378284867345),
(0.,1.),
.UNSPECIFIED.)GEOMETRIC_REPRESENTATION_ITEM()RATIONAL_B_SPLINE_SURFACE((
(1.,0.707101763417906,1.),
(1.,0.805512170273296,1.),
(1.,0.875629796769762,1.),
(1.,0.860103385206443,1.),
(1.,0.788050932839038,1.),
(1.,0.707101719996545,1.)))REPRESENTATION_ITEM('')SURFACE());
#888=CARTESIAN_POINT('',(-0.685575409267562,2.5,-2.70000024718407));
#889=CARTESIAN_POINT('',(-0.685575346639757,2.50000000777044,-2.49999717791784));
#890=CARTESIAN_POINT('',(-0.68557534202545,2.29999705443435,-2.5));
#891=CARTESIAN_POINT('',(-0.493389275511173,2.5,-2.69860723389181));
#892=CARTESIAN_POINT('',(-0.515252986044967,2.5000278235463,-2.54944797150056));
#893=CARTESIAN_POINT('',(-0.493393138561678,2.35735675261564,-2.5));
#894=CARTESIAN_POINT('',(-0.196812316714561,2.5,-2.66893860748183));
#895=CARTESIAN_POINT('',(-0.196556309859153,2.49997852158389,-2.55855845155242));
#896=CARTESIAN_POINT('',(-0.196811109167779,2.40642475977399,-2.5));
#897=CARTESIAN_POINT('',(0.267444356605005,2.5,-2.676249012479));
#898=CARTESIAN_POINT('',(0.275908583647646,2.50003841198054,-2.55770543255647));
#899=CARTESIAN_POINT('',(0.267449645473941,2.39617140218979,-2.5));
#900=CARTESIAN_POINT('',(0.527263825097122,2.5,-2.69960415026621));
#901=CARTESIAN_POINT('',(0.544563671111418,2.50000694234569,-2.54169982757867));
#902=CARTESIAN_POINT('',(0.52723444017732,2.34722392221859,-2.5));
#903=CARTESIAN_POINT('',(0.685575406888795,2.5,-2.70000023614149));
#904=CARTESIAN_POINT('',(0.685575346076571,2.50000000519261,-2.49999717137877));
#905=CARTESIAN_POINT('',(0.685575342841919,2.29999705419098,-2.5));
#906=FACE_BOUND('',#907,.T.);
#907=EDGE_LOOP('',(#1168,#1169,#1170,#1171));
#908=CYLINDRICAL_SURFACE('',#909,0.2);
#909=AXIS2_PLACEMENT_3D('',#910,#911,#912);
#910=CARTESIAN_POINT('',(-2.3,2.3,-2.7));
#911=DIRECTION('',(-1.,0.,0.));
#912=DIRECTION('',(0.,0.,1.));
#913=FACE_BOUND('',#914,.T.);
#914=EDGE_LOOP('',(#1172,#1173,#1174,#1175));
#915=TOROIDAL_SURFACE('',#916,0.8,0.2);
#916=AXIS2_PLACEMENT_3D('',#917,#918,#919);
#917=CARTESIAN_POINT('',(1.5,1.5,-2.7));
#918=DIRECTION('',(0.,-0.,1.));
#919=DIRECTION('',(0.877582561890373,-0.479425538604203,0.));
#920=FACE_BOUND('',#921,.T.);
#921=EDGE_LOOP('',(#1176,#1177,#1178,#1179));
#922=CYLINDRICAL_SURFACE('',#923,0.2);
#923=AXIS2_PLACEMENT_3D('',#924,#925,#926);
#924=CARTESIAN_POINT('',(2.3,2.3,-2.7));
#925=DIRECTION('',(-0.,1.,0.));
#926=DIRECTION('',(0.,0.,1.));
#927=FACE_BOUND('',#928,.T.);
#928=EDGE_LOOP('',(#1180,#1181,#1182,#1183));
#929=(BOUNDED_SURFACE()B_SPLINE_SURFACE(3,2,(
(#930,#931,#932),
(#933,#934,#935),
(#936,#937,#938),
(#939,#940,#941),
(#942,#943,#944),
(#945,#946,#947)),
.UNSPECIFIED.,.F.,.F.,.F.)B_SPLINE_SURFACE_WITH_KNOTS((4,1,1,4),
(3,3),
(-4.29651811858687E-006,0.250683706143592,0.37568800266171,0.579378284867344),
(0.,1.),
.UNSPECIFIED.)GEOMETRIC_REPRESENTATION_ITEM()RATIONAL_B_SPLINE_SURFACE((
(1.,0.707101763417906,1.),
(1.,0.805512170273296,1.),
(1.,0.875629796769762,1.),
(1.,0.860103385206443,1.),
(1.,0.788050932839038,1.),
(1.,0.707101719996545,1.)))REPRESENTATION_ITEM('')SURFACE());
#930=CARTESIAN_POINT('',(2.5,0.685575409267562,-2.70000024718407));
#931=CARTESIAN_POINT('',(2.50000000777044,0.685575346639757,-2.49999717791784));
#932=CARTESIAN_POINT('',(2.29999705443435,0.685575342025451,-2.5));
#933=CARTESIAN_POINT('',(2.5,0.493389275511173,-2.69860723389181));
#934=CARTESIAN_POINT('',(2.5000278235463,0.515252986044968,-2.54944797150056));
#935=CARTESIAN_POINT('',(2.35735675261564,0.493393138561681,-2.5));
#936=CARTESIAN_POINT('',(2.5,0.196812316714561,-2.66893860748183));
#937=CARTESIAN_POINT('',(2.49997852158389,0.196556309859152,-2.55855845155242));
#938=CARTESIAN_POINT('',(2.40642475977399,0.196811109167777,-2.5));
#939=CARTESIAN_POINT('',(2.5,-0.267444356605004,-2.676249012479));
#940=CARTESIAN_POINT('',(2.50003841198054,-0.275908583647644,-2.55770543255647));
#941=CARTESIAN_POINT('',(2.39617140218979,-0.267449645473939,-2.5));
#942=CARTESIAN_POINT('',(2.5,-0.52726382509712,-2.69960415026621));
#943=CARTESIAN_POINT('',(2.50000694234569,-0.544563671111416,-2.54169982757867));
#944=CARTESIAN_POINT('',(2.34722392221859,-0.527234440177318,-2.5));
#945=CARTESIAN_POINT('',(2.5,-0.685575406888794,-2.7000002361415));
#946=CARTESIAN_POINT('',(2.50000000519261,-0.685575346076568,-2.49999717137877));
#947=CARTESIAN_POINT('',(2.29999705419098,-0.685575342841917,-2.5));
#948=FACE_BOUND('',#949,.T.);
#949=EDGE_LOOP('',(#1184,#1185,#1186,#1187));
#950=CYLINDRICAL_SURFACE('',#951,0.2);
#951=AXIS2_PLACEMENT_3D('',#952,#953,#954);
#952=CARTESIAN_POINT('',(2.3,2.3,-2.7));
#953=DIRECTION('',(-0.,1.,0.));
#954=DIRECTION('',(0.,0.,1.));
#955=FACE_BOUND('',#956,.T.);
#956=EDGE_LOOP('',(#1188,#1189,#1190,#1191));
#957=TOROIDAL_SURFACE('',#958,0.8,0.2);
#958=AXIS2_PLACEMENT_3D('',#959,#960,#961);
#959=CARTESIAN_POINT('',(1.5,-1.5,-2.7));
#960=DIRECTION('',(0.,-0.,1.));
#961=DIRECTION('',(-0.479425538604203,-0.877582561890373,0.));
#962=FACE_BOUND('',#963,.T.);
#963=EDGE_LOOP('',(#1192,#1193,#1194,#1195));
#964=CYLINDRICAL_SURFACE('',#965,0.2);
#965=AXIS2_PLACEMENT_3D('',#966,#967,#968);
#966=CARTESIAN_POINT('',(2.3,-2.3,-2.7));
#967=DIRECTION('',(1.,0.,0.));
#968=DIRECTION('',(0.,2.22044604925031E-015,1.));
#969=FACE_BOUND('',#970,.T.);
#970=EDGE_LOOP('',(#1196,#1197,#1198,#1199));
#971=(BOUNDED_SURFACE()B_SPLINE_SURFACE(3,2,(
(#972,#973,#974),
(#975,#976,#977),
(#978,#979,#980),
(#981,#982,#983),
(#984,#985,#986),
(#987,#988,#989)),
.UNSPECIFIED.,.F.,.F.,.F.)B_SPLINE_SURFACE_WITH_KNOTS((4,1,1,4),
(3,3),
(-4.29651811858681E-006,0.250683706143592,0.37568800266171,0.579378284867347),
(0.,1.),
.UNSPECIFIED.)GEOMETRIC_REPRESENTATION_ITEM()RATIONAL_B_SPLINE_SURFACE((
(1.,0.707101763417906,1.),
(1.,0.805512170273296,1.),
(1.,0.875629796769763,1.),
(1.,0.860103385206443,1.),
(1.,0.78805093283904,1.),
(1.,0.707101719996545,1.)))REPRESENTATION_ITEM('')SURFACE());
#972=CARTESIAN_POINT('',(0.685575409267564,-2.5,-2.70000024718407));
#973=CARTESIAN_POINT('',(0.685575346639759,-2.50000000777044,-2.49999717791784));
#974=CARTESIAN_POINT('',(0.685575342025454,-2.29999705443435,-2.5));
#975=CARTESIAN_POINT('',(0.493389275511176,-2.5,-2.69860723389181));
#976=CARTESIAN_POINT('',(0.515252986044967,-2.5000278235463,-2.54944797150056));
#977=CARTESIAN_POINT('',(0.493393138561683,-2.35735675261564,-2.5));
#978=CARTESIAN_POINT('',(0.196812316714564,-2.5,-2.66893860748183));
#979=CARTESIAN_POINT('',(0.196556309859157,-2.49997852158389,-2.55855845155242));
#980=CARTESIAN_POINT('',(0.19681110916778,-2.40642475977399,-2.5));
#981=CARTESIAN_POINT('',(-0.267444356605004,-2.5,-2.676249012479));
#982=CARTESIAN_POINT('',(-0.275908583647648,-2.50003841198054,-2.55770543255647));
#983=CARTESIAN_POINT('',(-0.267449645473939,-2.39617140218978,-2.5));
#984=CARTESIAN_POINT('',(-0.527263825097122,-2.5,-2.69960415026621));
#985=CARTESIAN_POINT('',(-0.544563671111414,-2.50000694234568,-2.54169982757867));
#986=CARTESIAN_POINT('',(-0.527234440177318,-2.3472239222186,-2.5));
#987=CARTESIAN_POINT('',(-0.685575406888796,-2.5,-2.70000023614149));
#988=CARTESIAN_POINT('',(-0.685575346076573,-2.50000000519261,-2.49999717137877));
#989=CARTESIAN_POINT('',(-0.68557534284192,-2.29999705419098,-2.5));
#990=FACE_BOUND('',#991,.T.);
#991=EDGE_LOOP('',(#1200,#1201,#1202,#1203));
#992=CYLINDRICAL_SURFACE('',#993,0.2);
#993=AXIS2_PLACEMENT_3D('',#994,#995,#996);
#994=CARTESIAN_POINT('',(2.3,-2.3,-2.7));
#995=DIRECTION('',(1.,0.,0.));
#996=DIRECTION('',(0.,2.22044604925031E-015,1.));
#997=FACE_BOUND('',#998,.T.);
#998=EDGE_LOOP('',(#1204,#1205,#1206,#1207));
#999=TOROIDAL_SURFACE('',#1000,0.8,0.2);
#1000=AXIS2_PLACEMENT_3D('',#1001,#1002,#1003);
#1001=CARTESIAN_POINT('',(-1.5,-1.5,-2.7));
#1002=DIRECTION('',(0.,-0.,1.));
#1003=DIRECTION('',(-0.877582561890373,0.479425538604203,0.));
#1004=ORIENTED_EDGE('',*,*,#1208,.T.);
#1005=ORIENTED_EDGE('',*,*,#1209,.F.);
#1006=ORIENTED_EDGE('',*,*,#1210,.T.);
#1007=ORIENTED_EDGE('',*,*,#1211,.F.);
#1008=ORIENTED_EDGE('',*,*,#1212,.T.);
#1009=ORIENTED_EDGE('',*,*,#1213,.F.);
#1010=ORIENTED_EDGE('',*,*,#1214,.T.);
#1011=ORIENTED_EDGE('',*,*,#1215,.F.);
#1012=ORIENTED_EDGE('',*,*,#1216,.T.);
#1013=ORIENTED_EDGE('',*,*,#1217,.F.);
#1014=ORIENTED_EDGE('',*,*,#1218,.F.);
#1015=ORIENTED_EDGE('',*,*,#1219,.T.);
#1016=ORIENTED_EDGE('',*,*,#1220,.T.);
#1017=ORIENTED_EDGE('',*,*,#1221,.T.);
#1018=ORIENTED_EDGE('',*,*,#1222,.F.);
#1019=ORIENTED_EDGE('',*,*,#1223,.T.);
#1020=ORIENTED_EDGE('',*,*,#1224,.T.);
#1021=ORIENTED_EDGE('',*,*,#1225,.T.);
#1022=ORIENTED_EDGE('',*,*,#1226,.T.);
#1023=ORIENTED_EDGE('',*,*,#1227,.F.);
#1024=ORIENTED_EDGE('',*,*,#1220,.F.);
#1025=ORIENTED_EDGE('',*,*,#1228,.T.);
#1026=ORIENTED_EDGE('',*,*,#1229,.T.);
#1027=ORIENTED_EDGE('',*,*,#1230,.T.);
#1028=ORIENTED_EDGE('',*,*,#1226,.F.);
#1029=ORIENTED_EDGE('',*,*,#1231,.T.);
#1030=ORIENTED_EDGE('',*,*,#1232,.T.);
#1031=ORIENTED_EDGE('',*,*,#1233,.T.);
#1032=ORIENTED_EDGE('',*,*,#1234,.T.);
#1033=ORIENTED_EDGE('',*,*,#1235,.F.);
#1034=ORIENTED_EDGE('',*,*,#1229,.F.);
#1035=ORIENTED_EDGE('',*,*,#1236,.T.);
#1036=ORIENTED_EDGE('',*,*,#1237,.T.);
#1037=ORIENTED_EDGE('',*,*,#1238,.T.);
#1038=ORIENTED_EDGE('',*,*,#1234,.F.);
#1039=ORIENTED_EDGE('',*,*,#1239,.T.);
#1040=ORIENTED_EDGE('',*,*,#1240,.T.);
#1041=ORIENTED_EDGE('',*,*,#1241,.T.);
#1042=ORIENTED_EDGE('',*,*,#1242,.T.);
#1043=ORIENTED_EDGE('',*,*,#1243,.T.);
#1044=ORIENTED_EDGE('',*,*,#1244,.F.);
#1045=ORIENTED_EDGE('',*,*,#1237,.F.);
#1046=ORIENTED_EDGE('',*,*,#1245,.T.);
#1047=ORIENTED_EDGE('',*,*,#1246,.T.);
#1048=ORIENTED_EDGE('',*,*,#1247,.T.);
#1049=ORIENTED_EDGE('',*,*,#1243,.F.);
#1050=ORIENTED_EDGE('',*,*,#1248,.T.);
#1051=ORIENTED_EDGE('',*,*,#1249,.T.);
#1052=ORIENTED_EDGE('',*,*,#1250,.T.);
#1053=ORIENTED_EDGE('',*,*,#1222,.T.);
#1054=ORIENTED_EDGE('',*,*,#1251,.F.);
#1055=ORIENTED_EDGE('',*,*,#1246,.F.);
#1056=ORIENTED_EDGE('',*,*,#1217,.T.);
#1057=ORIENTED_EDGE('',*,*,#1252,.F.);
#1058=ORIENTED_EDGE('',*,*,#1253,.F.);
#1059=ORIENTED_EDGE('',*,*,#1254,.F.);
#1060=ORIENTED_EDGE('',*,*,#1255,.T.);
#1061=ORIENTED_EDGE('',*,*,#1256,.F.);
#1062=ORIENTED_EDGE('',*,*,#1257,.F.);
#1063=ORIENTED_EDGE('',*,*,#1258,.F.);
#1064=ORIENTED_EDGE('',*,*,#1259,.F.);
#1065=ORIENTED_EDGE('',*,*,#1260,.F.);
#1066=ORIENTED_EDGE('',*,*,#1261,.F.);
#1067=ORIENTED_EDGE('',*,*,#1262,.F.);
#1068=ORIENTED_EDGE('',*,*,#1255,.F.);
#1069=ORIENTED_EDGE('',*,*,#1263,.F.);
#1070=ORIENTED_EDGE('',*,*,#1264,.F.);
#1071=ORIENTED_EDGE('',*,*,#1265,.F.);
#1072=ORIENTED_EDGE('',*,*,#1266,.F.);
#1073=ORIENTED_EDGE('',*,*,#1267,.T.);
#1074=ORIENTED_EDGE('',*,*,#1268,.F.);
#1075=ORIENTED_EDGE('',*,*,#1269,.T.);
#1076=ORIENTED_EDGE('',*,*,#1270,.F.);
#1077=ORIENTED_EDGE('',*,*,#1271,.T.);
#1078=ORIENTED_EDGE('',*,*,#1272,.T.);
#1079=ORIENTED_EDGE('',*,*,#1273,.T.);
#1080=ORIENTED_EDGE('',*,*,#1274,.F.);
#1081=ORIENTED_EDGE('',*,*,#1275,.F.);
#1082=ORIENTED_EDGE('',*,*,#1275,.T.);
#1083=ORIENTED_EDGE('',*,*,#1267,.F.);
#1084=ORIENTED_EDGE('',*,*,#1257,.T.);
#1085=ORIENTED_EDGE('',*,*,#1256,.T.);
#1086=ORIENTED_EDGE('',*,*,#1266,.T.);
#1087=ORIENTED_EDGE('',*,*,#1269,.F.);
#1088=ORIENTED_EDGE('',*,*,#1271,.F.);
#1089=ORIENTED_EDGE('',*,*,#1268,.T.);
#1090=ORIENTED_EDGE('',*,*,#1270,.T.);
#1091=ORIENTED_EDGE('',*,*,#1272,.F.);
#1092=ORIENTED_EDGE('',*,*,#1218,.T.);
#1093=ORIENTED_EDGE('',*,*,#1216,.F.);
#1094=ORIENTED_EDGE('',*,*,#1273,.F.);
#1095=ORIENTED_EDGE('',*,*,#1274,.T.);
#1096=ORIENTED_EDGE('',*,*,#1244,.T.);
#1097=ORIENTED_EDGE('',*,*,#1276,.T.);
#1098=ORIENTED_EDGE('',*,*,#1208,.F.);
#1099=ORIENTED_EDGE('',*,*,#1277,.F.);
#1100=ORIENTED_EDGE('',*,*,#1209,.T.);
#1101=ORIENTED_EDGE('',*,*,#1276,.F.);
#1102=ORIENTED_EDGE('',*,*,#1247,.F.);
#1103=ORIENTED_EDGE('',*,*,#1278,.T.);
#1104=ORIENTED_EDGE('',*,*,#1251,.T.);
#1105=ORIENTED_EDGE('',*,*,#1279,.T.);
#1106=ORIENTED_EDGE('',*,*,#1210,.F.);
#1107=ORIENTED_EDGE('',*,*,#1278,.F.);
#1108=ORIENTED_EDGE('',*,*,#1211,.T.);
#1109=ORIENTED_EDGE('',*,*,#1279,.F.);
#1110=ORIENTED_EDGE('',*,*,#1221,.F.);
#1111=ORIENTED_EDGE('',*,*,#1280,.T.);
#1112=ORIENTED_EDGE('',*,*,#1227,.T.);
#1113=ORIENTED_EDGE('',*,*,#1281,.T.);
#1114=ORIENTED_EDGE('',*,*,#1212,.F.);
#1115=ORIENTED_EDGE('',*,*,#1280,.F.);
#1116=ORIENTED_EDGE('',*,*,#1213,.T.);
#1117=ORIENTED_EDGE('',*,*,#1281,.F.);
#1118=ORIENTED_EDGE('',*,*,#1230,.F.);
#1119=ORIENTED_EDGE('',*,*,#1282,.T.);
#1120=ORIENTED_EDGE('',*,*,#1235,.T.);
#1121=ORIENTED_EDGE('',*,*,#1283,.T.);
#1122=ORIENTED_EDGE('',*,*,#1214,.F.);
#1123=ORIENTED_EDGE('',*,*,#1282,.F.);
#1124=ORIENTED_EDGE('',*,*,#1215,.T.);
#1125=ORIENTED_EDGE('',*,*,#1283,.F.);
#1126=ORIENTED_EDGE('',*,*,#1238,.F.);
#1127=ORIENTED_EDGE('',*,*,#1277,.T.);
#1128=ORIENTED_EDGE('',*,*,#1284,.F.);
#1129=ORIENTED_EDGE('',*,*,#1260,.T.);
#1130=ORIENTED_EDGE('',*,*,#1285,.F.);
#1131=ORIENTED_EDGE('',*,*,#1286,.F.);
#1132=ORIENTED_EDGE('',*,*,#1287,.F.);
#1133=ORIENTED_EDGE('',*,*,#1258,.T.);
#1134=ORIENTED_EDGE('',*,*,#1288,.F.);
#1135=ORIENTED_EDGE('',*,*,#1289,.F.);
#1136=ORIENTED_EDGE('',*,*,#1290,.F.);
#1137=ORIENTED_EDGE('',*,*,#1264,.T.);
#1138=ORIENTED_EDGE('',*,*,#1291,.F.);
#1139=ORIENTED_EDGE('',*,*,#1292,.F.);
#1140=ORIENTED_EDGE('',*,*,#1239,.F.);
#1141=ORIENTED_EDGE('',*,*,#1293,.F.);
#1142=ORIENTED_EDGE('',*,*,#1252,.T.);
#1143=ORIENTED_EDGE('',*,*,#1294,.T.);
#1144=ORIENTED_EDGE('',*,*,#1240,.F.);
#1145=ORIENTED_EDGE('',*,*,#1294,.F.);
#1146=ORIENTED_EDGE('',*,*,#1262,.T.);
#1147=ORIENTED_EDGE('',*,*,#1295,.T.);
#1148=ORIENTED_EDGE('',*,*,#1241,.F.);
#1149=ORIENTED_EDGE('',*,*,#1295,.F.);
#1150=ORIENTED_EDGE('',*,*,#1261,.T.);
#1151=ORIENTED_EDGE('',*,*,#1296,.T.);
#1152=ORIENTED_EDGE('',*,*,#1242,.F.);
#1153=ORIENTED_EDGE('',*,*,#1296,.F.);
#1154=ORIENTED_EDGE('',*,*,#1284,.T.);
#1155=ORIENTED_EDGE('',*,*,#1297,.T.);
#1156=ORIENTED_EDGE('',*,*,#1286,.T.);
#1157=ORIENTED_EDGE('',*,*,#1298,.T.);
#1158=ORIENTED_EDGE('',*,*,#1245,.F.);
#1159=ORIENTED_EDGE('',*,*,#1297,.F.);
#1160=ORIENTED_EDGE('',*,*,#1248,.F.);
#1161=ORIENTED_EDGE('',*,*,#1298,.F.);
#1162=ORIENTED_EDGE('',*,*,#1285,.T.);
#1163=ORIENTED_EDGE('',*,*,#1299,.T.);
#1164=ORIENTED_EDGE('',*,*,#1249,.F.);
#1165=ORIENTED_EDGE('',*,*,#1299,.F.);
#1166=ORIENTED_EDGE('',*,*,#1259,.T.);
#1167=ORIENTED_EDGE('',*,*,#1300,.T.);
#1168=ORIENTED_EDGE('',*,*,#1250,.F.);
#1169=ORIENTED_EDGE('',*,*,#1300,.F.);
#1170=ORIENTED_EDGE('',*,*,#1287,.T.);
#1171=ORIENTED_EDGE('',*,*,#1301,.T.);
#1172=ORIENTED_EDGE('',*,*,#1289,.T.);
#1173=ORIENTED_EDGE('',*,*,#1302,.T.);
#1174=ORIENTED_EDGE('',*,*,#1219,.F.);
#1175=ORIENTED_EDGE('',*,*,#1301,.F.);
#1176=ORIENTED_EDGE('',*,*,#1223,.F.);
#1177=ORIENTED_EDGE('',*,*,#1302,.F.);
#1178=ORIENTED_EDGE('',*,*,#1288,.T.);
#1179=ORIENTED_EDGE('',*,*,#1303,.T.);
#1180=ORIENTED_EDGE('',*,*,#1224,.F.);
#1181=ORIENTED_EDGE('',*,*,#1303,.F.);
#1182=ORIENTED_EDGE('',*,*,#1265,.T.);
#1183=ORIENTED_EDGE('',*,*,#1304,.T.);
#1184=ORIENTED_EDGE('',*,*,#1225,.F.);
#1185=ORIENTED_EDGE('',*,*,#1304,.F.);
#1186=ORIENTED_EDGE('',*,*,#1290,.T.);
#1187=ORIENTED_EDGE('',*,*,#1305,.T.);
#1188=ORIENTED_EDGE('',*,*,#1292,.T.);
#1189=ORIENTED_EDGE('',*,*,#1306,.T.);
#1190=ORIENTED_EDGE('',*,*,#1228,.F.);
#1191=ORIENTED_EDGE('',*,*,#1305,.F.);
#1192=ORIENTED_EDGE('',*,*,#1231,.F.);
#1193=ORIENTED_EDGE('',*,*,#1306,.F.);
#1194=ORIENTED_EDGE('',*,*,#1291,.T.);
#1195=ORIENTED_EDGE('',*,*,#1307,.T.);
#1196=ORIENTED_EDGE('',*,*,#1232,.F.);
#1197=ORIENTED_EDGE('',*,*,#1307,.F.);
#1198=ORIENTED_EDGE('',*,*,#1263,.T.);
#1199=ORIENTED_EDGE('',*,*,#1308,.T.);
#1200=ORIENTED_EDGE('',*,*,#1233,.F.);
#1201=ORIENTED_EDGE('',*,*,#1308,.F.);
#1202=ORIENTED_EDGE('',*,*,#1254,.T.);
#1203=ORIENTED_EDGE('',*,*,#1309,.T.);
#1204=ORIENTED_EDGE('',*,*,#1253,.T.);
#1205=ORIENTED_EDGE('',*,*,#1293,.T.);
#1206=ORIENTED_EDGE('',*,*,#1236,.F.);
#1207=ORIENTED_EDGE('',*,*,#1309,.F.);
#1208=EDGE_CURVE('',#1310,#1311,#1312,.T.);
#1209=EDGE_CURVE('',#1313,#1311,#1314,.F.);
#1210=EDGE_CURVE('',#1313,#1315,#1316,.T.);
#1211=EDGE_CURVE('',#1317,#1315,#1318,.F.);
#1212=EDGE_CURVE('',#1317,#1319,#1320,.T.);
#1213=EDGE_CURVE('',#1321,#1319,#1322,.F.);
#1214=EDGE_CURVE('',#1321,#1323,#1324,.T.);
#1215=EDGE_CURVE('',#1310,#1323,#1325,.F.);
#1216=EDGE_CURVE('',#1326,#1326,#1327,.F.);
#1217=EDGE_CURVE('',#1328,#1328,#1329,.T.);
#1218=EDGE_CURVE('',#1330,#1330,#1331,.F.);
#1219=EDGE_CURVE('',#1332,#1333,#1334,.F.);
#1220=EDGE_CURVE('',#1333,#1335,#1336,.T.);
#1221=EDGE_CURVE('',#1335,#1337,#1338,.F.);
#1222=EDGE_CURVE('',#1332,#1337,#1339,.T.);
#1223=EDGE_CURVE('',#1333,#1340,#1341,.T.);
#1224=EDGE_CURVE('',#1340,#1342,#1343,.T.);
#1225=EDGE_CURVE('',#1342,#1344,#1345,.T.);
#1226=EDGE_CURVE('',#1344,#1346,#1347,.T.);
#1227=EDGE_CURVE('',#1335,#1346,#1348,.T.);
#1228=EDGE_CURVE('',#1344,#1349,#1350,.F.);
#1229=EDGE_CURVE('',#1349,#1351,#1352,.T.);
#1230=EDGE_CURVE('',#1351,#1346,#1353,.F.);
#1231=EDGE_CURVE('',#1349,#1354,#1355,.T.);
#1232=EDGE_CURVE('',#1354,#1356,#1357,.T.);
#1233=EDGE_CURVE('',#1356,#1358,#1359,.T.);
#1234=EDGE_CURVE('',#1358,#1360,#1361,.T.);
#1235=EDGE_CURVE('',#1351,#1360,#1362,.T.);
#1236=EDGE_CURVE('',#1358,#1363,#1364,.F.);
#1237=EDGE_CURVE('',#1363,#1365,#1366,.T.);
#1238=EDGE_CURVE('',#1365,#1360,#1367,.F.);
#1239=EDGE_CURVE('',#1363,#1368,#1369,.T.);
#1240=EDGE_CURVE('',#1368,#1370,#1371,.T.);
#1241=EDGE_CURVE('',#1370,#1372,#1373,.T.);
#1242=EDGE_CURVE('',#1372,#1374,#1375,.T.);
#1243=EDGE_CURVE('',#1374,#1376,#1377,.T.);
#1244=EDGE_CURVE('',#1365,#1376,#1378,.T.);
#1245=EDGE_CURVE('',#1374,#1379,#1380,.F.);
#1246=EDGE_CURVE('',#1379,#1381,#1382,.T.);
#1247=EDGE_CURVE('',#1381,#1376,#1383,.F.);
#1248=EDGE_CURVE('',#1379,#1384,#1385,.T.);
#1249=EDGE_CURVE('',#1384,#1386,#1387,.T.);
#1250=EDGE_CURVE('',#1386,#1332,#1388,.T.);
#1251=EDGE_CURVE('',#1381,#1337,#1389,.T.);
#1252=EDGE_CURVE('',#1390,#1391,#1392,.T.);
#1253=EDGE_CURVE('',#1393,#1390,#1394,.F.);
#1254=EDGE_CURVE('',#1395,#1393,#1396,.T.);
#1255=EDGE_CURVE('',#1395,#1391,#1397,.T.);
#1256=EDGE_CURVE('',#1398,#1399,#1400,.T.);
#1257=EDGE_CURVE('',#1399,#1398,#1401,.T.);
#1258=EDGE_CURVE('',#1402,#1403,#1404,.T.);
#1259=EDGE_CURVE('',#1405,#1402,#1406,.T.);
#1260=EDGE_CURVE('',#1407,#1405,#1408,.T.);
#1261=EDGE_CURVE('',#1409,#1407,#1410,.T.);
#1262=EDGE_CURVE('',#1391,#1409,#1411,.T.);
#1263=EDGE_CURVE('',#1412,#1395,#1413,.T.);
#1264=EDGE_CURVE('',#1414,#1412,#1415,.T.);
#1265=EDGE_CURVE('',#1403,#1414,#1416,.T.);
#1266=EDGE_CURVE('',#1417,#1417,#1418,.T.);
#1267=EDGE_CURVE('',#1419,#1419,#1420,.T.);
#1268=EDGE_CURVE('',#1421,#1421,#1422,.T.);
#1269=EDGE_CURVE('',#1423,#1423,#1424,.T.);
#1270=EDGE_CURVE('',#1425,#1425,#1426,.T.);
#1271=EDGE_CURVE('',#1427,#1427,#1428,.T.);
#1272=EDGE_CURVE('',#1429,#1429,#1430,.T.);
#1273=EDGE_CURVE('',#1431,#1431,#1432,.F.);
#1274=EDGE_CURVE('',#1433,#1433,#1434,.F.);
#1275=EDGE_CURVE('',#1435,#1435,#1436,.T.);
#1276=EDGE_CURVE('',#1376,#1311,#1437,.T.);
#1277=EDGE_CURVE('',#1365,#1310,#1438,.F.);
#1278=EDGE_CURVE('',#1381,#1313,#1439,.F.);
#1279=EDGE_CURVE('',#1337,#1315,#1440,.T.);
#1280=EDGE_CURVE('',#1335,#1317,#1441,.F.);
#1281=EDGE_CURVE('',#1346,#1319,#1442,.T.);
#1282=EDGE_CURVE('',#1351,#1321,#1443,.F.);
#1283=EDGE_CURVE('',#1360,#1323,#1444,.T.);
#1284=EDGE_CURVE('',#1407,#1445,#1446,.T.);
#1285=EDGE_CURVE('',#1447,#1405,#1448,.T.);
#1286=EDGE_CURVE('',#1445,#1447,#1449,.F.);
#1287=EDGE_CURVE('',#1402,#1450,#1451,.T.);
#1288=EDGE_CURVE('',#1452,#1403,#1453,.T.);
#1289=EDGE_CURVE('',#1450,#1452,#1454,.F.);
#1290=EDGE_CURVE('',#1414,#1455,#1456,.T.);
#1291=EDGE_CURVE('',#1457,#1412,#1458,.T.);
#1292=EDGE_CURVE('',#1455,#1457,#1459,.F.);
#1293=EDGE_CURVE('',#1390,#1363,#1460,.T.);
#1294=EDGE_CURVE('',#1391,#1368,#1461,.F.);
#1295=EDGE_CURVE('',#1409,#1370,#1462,.F.);
#1296=EDGE_CURVE('',#1407,#1372,#1463,.F.);
#1297=EDGE_CURVE('',#1445,#1374,#1464,.F.);
#1298=EDGE_CURVE('',#1447,#1379,#1465,.T.);
#1299=EDGE_CURVE('',#1405,#1384,#1466,.F.);
#1300=EDGE_CURVE('',#1402,#1386,#1467,.F.);
#1301=EDGE_CURVE('',#1450,#1332,#1468,.F.);
#1302=EDGE_CURVE('',#1452,#1333,#1469,.T.);
#1303=EDGE_CURVE('',#1403,#1340,#1470,.F.);
#1304=EDGE_CURVE('',#1414,#1342,#1471,.F.);
#1305=EDGE_CURVE('',#1455,#1344,#1472,.F.);
#1306=EDGE_CURVE('',#1457,#1349,#1473,.T.);
#1307=EDGE_CURVE('',#1412,#1354,#1474,.F.);
#1308=EDGE_CURVE('',#1395,#1356,#1475,.F.);
#1309=EDGE_CURVE('',#1393,#1358,#1476,.F.);
#1310=VERTEX_POINT('',#1477);
#1311=VERTEX_POINT('',#1478);
#1312=LINE('',#1479,#1480);
#1313=VERTEX_POINT('',#1482);
#1314=CIRCLE('',#1483,0.8);
#1315=VERTEX_POINT('',#1487);
#1316=LINE('',#1488,#1489);
#1317=VERTEX_POINT('',#1491);
#1318=CIRCLE('',#1492,0.8);
#1319=VERTEX_POINT('',#1496);
#1320=LINE('',#1497,#1498);
#1321=VERTEX_POINT('',#1500);
#1322=CIRCLE('',#1501,0.8);
#1323=VERTEX_POINT('',#1505);
#1324=LINE('',#1506,#1507);
#1325=CIRCLE('',#1509,0.8);
#1326=VERTEX_POINT('',#1513);
#1327=CIRCLE('',#1514,1.2);
#1328=VERTEX_POINT('',#1518);
#1329=CIRCLE('',#1519,1.);
#1330=VERTEX_POINT('',#1523);
#1331=CIRCLE('',#1524,1.);
#1332=VERTEX_POINT('',#1528);
#1333=VERTEX_POINT('',#1529);
#1334=CIRCLE('',#1530,1.);
#1335=VERTEX_POINT('',#1534);
#1336=LINE('',#1535,#1536);
#1337=VERTEX_POINT('',#1538);
#1338=CIRCLE('',#1539,1.);
#1339=LINE('',#1543,#1544);
#1340=VERTEX_POINT('',#1546);
#1341=LINE('',#1547,#1548);
#1342=VERTEX_POINT('',#1550);
#1343=B_SPLINE_CURVE_WITH_KNOTS('',3,
(#1551,#1552,#1553,#1554,#1555,#1556,#1557,#1558,#1559,#1560,#1561,#1562,#1563,#1564,
#1565,#1566),
.UNSPECIFIED.,.F.,.F.,
(4,2,2,2,2,2,2,4),
(0.,0.143833404778542,0.287666809557084,0.431500214335625,0.575333619114167,0.719167023892709,
0.86300042867125,1.),
.UNSPECIFIED.);
#1344=VERTEX_POINT('',#1567);
#1345=LINE('',#1568,#1569);
#1346=VERTEX_POINT('',#1571);
#1347=LINE('',#1572,#1573);
#1348=LINE('',#1575,#1576);
#1349=VERTEX_POINT('',#1578);
#1350=CIRCLE('',#1579,1.);
#1351=VERTEX_POINT('',#1583);
#1352=LINE('',#1584,#1585);
#1353=CIRCLE('',#1587,1.);
#1354=VERTEX_POINT('',#1591);
#1355=LINE('',#1592,#1593);
#1356=VERTEX_POINT('',#1595);
#1357=B_SPLINE_CURVE_WITH_KNOTS('',3,
(#1596,#1597,#1598,#1599,#1600,#1601,#1602,#1603,#1604,#1605,#1606,#1607,#1608,#1609,
#1610,#1611),
.UNSPECIFIED.,.F.,.F.,
(4,2,2,2,2,2,2,4),
(0.,0.143833404778541,0.287666809557082,0.431500214335623,0.575333619114164,0.719167023892705,
0.863000428671246,1.),
.UNSPECIFIED.);
#1358=VERTEX_POINT('',#1612);
#1359=LINE('',#1613,#1614);
#1360=VERTEX_POINT('',#1616);
#1361=LINE('',#1617,#1618);
#1362=LINE('',#1620,#1621);
#1363=VERTEX_POINT('',#1623);
#1364=CIRCLE('',#1624,1.);
#1365=VERTEX_POINT('',#1628);
#1366=LINE('',#1629,#1630);
#1367=CIRCLE('',#1632,1.);
#1368=VERTEX_POINT('',#1636);
#1369=LINE('',#1637,#1638);
#1370=VERTEX_POINT('',#1640);
#1371=B_SPLINE_CURVE_WITH_KNOTS('',3,
(#1641,#1642,#1643,#1644,#1645,#1646,#1647,#1648,#1649,#1650),
.UNSPECIFIED.,.F.,.F.,
(4,2,2,2,4),
(0.,0.287666809557084,0.575333619114168,0.863000428671252,1.),
.UNSPECIFIED.);
#1372=VERTEX_POINT('',#1651);
#1373=B_SPLINE_CURVE_WITH_KNOTS('',3,
(#1652,#1653,#1654,#1655,#1656,#1657,#1658,#1659,#1660,#1661),
.UNSPECIFIED.,.F.,.F.,
(4,2,2,2,4),
(0.,0.287666809557084,0.575333619114168,0.863000428671252,1.),
.UNSPECIFIED.);
#1374=VERTEX_POINT('',#1662);
#1375=LINE('',#1663,#1664);
#1376=VERTEX_POINT('',#1666);
#1377=LINE('',#1667,#1668);
#1378=LINE('',#1670,#1671);
#1379=VERTEX_POINT('',#1673);
#1380=CIRCLE('',#1674,1.);
#1381=VERTEX_POINT('',#1678);
#1382=LINE('',#1679,#1680);
#1383=CIRCLE('',#1682,1.);
#1384=VERTEX_POINT('',#1686);
#1385=LINE('',#1687,#1688);
#1386=VERTEX_POINT('',#1690);
#1387=B_SPLINE_CURVE_WITH_KNOTS('',3,
(#1691,#1692,#1693,#1694,#1695,#1696,#1697,#1698,#1699,#1700,#1701,#1702,#1703,#1704,
#1705,#1706),
.UNSPECIFIED.,.F.,.F.,
(4,2,2,2,2,2,2,4),
(0.,0.143833404778542,0.287666809557083,0.431500214335625,0.575333619114166,0.719167023892708,
0.863000428671249,1.),
.UNSPECIFIED.);
#1388=LINE('',#1707,#1708);
#1389=LINE('',#1710,#1711);
#1390=VERTEX_POINT('',#1713);
#1391=VERTEX_POINT('',#1714);
#1392=LINE('',#1715,#1716);
#1393=VERTEX_POINT('',#1718);
#1394=CIRCLE('',#1719,0.8);
#1395=VERTEX_POINT('',#1723);
#1396=LINE('',#1724,#1725);
#1397=CIRCLE('',#1727,2.4);
#1398=VERTEX_POINT('',#1731);
#1399=VERTEX_POINT('',#1732);
#1400=CIRCLE('',#1733,2.4);
#1401=CIRCLE('',#1737,2.4);
#1402=VERTEX_POINT('',#1741);
#1403=VERTEX_POINT('',#1742);
#1404=CIRCLE('',#1743,2.4);
#1405=VERTEX_POINT('',#1747);
#1406=CIRCLE('',#1748,2.4);
#1407=VERTEX_POINT('',#1752);
#1408=CIRCLE('',#1753,2.4);
#1409=VERTEX_POINT('',#1757);
#1410=CIRCLE('',#1758,2.4);
#1411=CIRCLE('',#1762,2.4);
#1412=VERTEX_POINT('',#1766);
#1413=CIRCLE('',#1767,2.4);
#1414=VERTEX_POINT('',#1771);
#1415=CIRCLE('',#1772,2.4);
#1416=CIRCLE('',#1776,2.4);
#1417=VERTEX_POINT('',#1780);
#1418=CIRCLE('',#1781,2.5);
#1419=VERTEX_POINT('',#1785);
#1420=CIRCLE('',#1786,2.5);
#1421=VERTEX_POINT('',#1790);
#1422=CIRCLE('',#1791,2.4);
#1423=VERTEX_POINT('',#1795);
#1424=CIRCLE('',#1796,2.4);
#1425=VERTEX_POINT('',#1800);
#1426=CIRCLE('',#1801,2.5);
#1427=VERTEX_POINT('',#1805);
#1428=CIRCLE('',#1806,2.5);
#1429=VERTEX_POINT('',#1810);
#1430=CIRCLE('',#1811,2.3);
#1431=VERTEX_POINT('',#1815);
#1432=CIRCLE('',#1816,1.2);
#1433=VERTEX_POINT('',#1820);
#1434=CIRCLE('',#1821,1.);
#1435=VERTEX_POINT('',#1825);
#1436=CIRCLE('',#1826,1.);
#1437=CIRCLE('',#1830,0.2);
#1438=CIRCLE('',#1834,0.2);
#1439=CIRCLE('',#1838,0.2);
#1440=CIRCLE('',#1842,0.2);
#1441=CIRCLE('',#1846,0.2);
#1442=CIRCLE('',#1850,0.2);
#1443=CIRCLE('',#1854,0.2);
#1444=CIRCLE('',#1858,0.2);
#1445=VERTEX_POINT('',#1862);
#1446=LINE('',#1863,#1864);
#1447=VERTEX_POINT('',#1866);
#1448=LINE('',#1867,#1868);
#1449=CIRCLE('',#1870,0.8);
#1450=VERTEX_POINT('',#1874);
#1451=LINE('',#1875,#1876);
#1452=VERTEX_POINT('',#1878);
#1453=LINE('',#1879,#1880);
#1454=CIRCLE('',#1882,0.8);
#1455=VERTEX_POINT('',#1886);
#1456=LINE('',#1887,#1888);
#1457=VERTEX_POINT('',#1890);
#1458=LINE('',#1891,#1892);
#1459=CIRCLE('',#1894,0.8);
#1460=CIRCLE('',#1898,0.2);
#1461=CIRCLE('',#1902,0.2);
#1462=CIRCLE('',#1906,0.200000000000006);
#1463=CIRCLE('',#1910,0.2);
#1464=CIRCLE('',#1914,0.2);
#1465=CIRCLE('',#1918,0.2);
#1466=CIRCLE('',#1922,0.2);
#1467=CIRCLE('',#1926,0.2);
#1468=CIRCLE('',#1930,0.2);
#1469=CIRCLE('',#1934,0.2);
#1470=CIRCLE('',#1938,0.2);
#1471=CIRCLE('',#1942,0.2);
#1472=CIRCLE('',#1946,0.2);
#1473=CIRCLE('',#1950,0.2);
#1474=CIRCLE('',#1954,0.2);
#1475=CIRCLE('',#1958,0.2);
#1476=CIRCLE('',#1962,0.2);
#1477=CARTESIAN_POINT('',(-2.3,-1.5,-3.));
#1478=CARTESIAN_POINT('',(-2.3,1.5,-3.));
#1479=CARTESIAN_POINT('',(-2.3,-1.5,-3.));
#1480=VECTOR('',#1481,1.);
#1481=DIRECTION('',(0.,1.,0.));
#1482=CARTESIAN_POINT('',(-1.5,2.3,-3.));
#1483=AXIS2_PLACEMENT_3D('',#1484,#1485,#1486);
#1484=CARTESIAN_POINT('',(-1.5,1.5,-3.));
#1485=DIRECTION('',(0.,0.,-1.));
#1486=DIRECTION('',(-1.,0.,0.));
#1487=CARTESIAN_POINT('',(1.5,2.3,-3.));
#1488=CARTESIAN_POINT('',(-1.5,2.3,-3.));
#1489=VECTOR('',#1490,1.);
#1490=DIRECTION('',(1.,0.,0.));
#1491=CARTESIAN_POINT('',(2.3,1.5,-3.));
#1492=AXIS2_PLACEMENT_3D('',#1493,#1494,#1495);
#1493=CARTESIAN_POINT('',(1.5,1.5,-3.));
#1494=DIRECTION('',(0.,0.,-1.));
#1495=DIRECTION('',(2.77555756156289E-016,1.,0.));
#1496=CARTESIAN_POINT('',(2.3,-1.5,-3.));
#1497=CARTESIAN_POINT('',(2.3,1.5,-3.));
#1498=VECTOR('',#1499,1.);
#1499=DIRECTION('',(0.,-1.,0.));
#1500=CARTESIAN_POINT('',(1.5,-2.3,-3.));
#1501=AXIS2_PLACEMENT_3D('',#1502,#1503,#1504);
#1502=CARTESIAN_POINT('',(1.5,-1.5,-3.));
#1503=DIRECTION('',(0.,0.,-1.));
#1504=DIRECTION('',(1.,0.,0.));
#1505=CARTESIAN_POINT('',(-1.5,-2.3,-3.));
#1506=CARTESIAN_POINT('',(1.5,-2.3,-3.));
#1507=VECTOR('',#1508,1.);
#1508=DIRECTION('',(-1.,0.,0.));
#1509=AXIS2_PLACEMENT_3D('',#1510,#1511,#1512);
#1510=CARTESIAN_POINT('',(-1.5,-1.5,-3.));
#1511=DIRECTION('',(-0.,0.,-1.));
#1512=DIRECTION('',(2.77555756156289E-016,-1.,0.));
#1513=CARTESIAN_POINT('',(-1.2,-1.46957615897682E-016,-3.));
#1514=AXIS2_PLACEMENT_3D('',#1515,#1516,#1517);
#1515=CARTESIAN_POINT('',(0.,0.,-3.));
#1516=DIRECTION('',(-0.,0.,-1.));
#1517=DIRECTION('',(-1.,0.,0.));
#1518=CARTESIAN_POINT('',(-1.,0.,-2.7));
#1519=AXIS2_PLACEMENT_3D('',#1520,#1521,#1522);
#1520=CARTESIAN_POINT('',(0.,0.,-2.7));
#1521=DIRECTION('',(-0.,0.,-1.));
#1522=DIRECTION('',(-1.,0.,0.));
#1523=CARTESIAN_POINT('',(-1.,-1.22464679914735E-016,-2.8));
#1524=AXIS2_PLACEMENT_3D('',#1525,#1526,#1527);
#1525=CARTESIAN_POINT('',(0.,0.,-2.8));
#1526=DIRECTION('',(0.,0.,-1.));
#1527=DIRECTION('',(-1.,0.,0.));
#1528=CARTESIAN_POINT('',(1.5,2.5,-2.7));
#1529=CARTESIAN_POINT('',(2.5,1.5,-2.7));
#1530=AXIS2_PLACEMENT_3D('',#1531,#1532,#1533);
#1531=CARTESIAN_POINT('',(1.5,1.5,-2.7));
#1532=DIRECTION('',(-0.,0.,1.));
#1533=DIRECTION('',(1.,0.,0.));
#1534=CARTESIAN_POINT('',(2.5,1.5,-2.8));
#1535=CARTESIAN_POINT('',(2.5,1.5,-2.7));
#1536=VECTOR('',#1537,1.);
#1537=DIRECTION('',(0.,0.,-1.));
#1538=CARTESIAN_POINT('',(1.5,2.5,-2.8));
#1539=AXIS2_PLACEMENT_3D('',#1540,#1541,#1542);
#1540=CARTESIAN_POINT('',(1.5,1.5,-2.8));
#1541=DIRECTION('',(0.,-0.,-1.));
#1542=DIRECTION('',(6.12323399573677E-017,1.,0.));
#1543=CARTESIAN_POINT('',(1.5,2.5,-2.7));
#1544=VECTOR('',#1545,1.);
#1545=DIRECTION('',(0.,0.,-1.));
#1546=CARTESIAN_POINT('',(2.5,0.685565460040105,-2.7));
#1547=CARTESIAN_POINT('',(2.5,1.5,-2.7));
#1548=VECTOR('',#1549,1.);
#1549=DIRECTION('',(0.,-1.,0.));
#1550=CARTESIAN_POINT('',(2.5,-0.685565460040105,-2.7));
#1551=CARTESIAN_POINT('',(2.5,0.685565460040105,-2.7));
#1552=CARTESIAN_POINT('',(2.5,0.621241879473138,-2.69840190964683));
#1553=CARTESIAN_POINT('',(2.5,0.556918298906171,-2.69680381929367));
#1554=CARTESIAN_POINT('',(2.5,0.426564689898476,-2.6909634976611));
#1555=CARTESIAN_POINT('',(2.5,0.360590918110201,-2.68574589343339));
#1556=CARTESIAN_POINT('',(2.5,0.228418347923836,-2.67921217677118));
#1557=CARTESIAN_POINT('',(2.5,0.161760882514863,-2.67561155781585));
#1558=CARTESIAN_POINT('',(2.5,0.0286866851715926,-2.67295345916567));
#1559=CARTESIAN_POINT('',(2.5,-0.0381918426121391,-2.67305084005884));
#1560=CARTESIAN_POINT('',(2.5,-0.171244075413449,-2.67595863824464));
#1561=CARTESIAN_POINT('',(2.5,-0.237879500058815,-2.67969492078329));
#1562=CARTESIAN_POINT('',(2.5,-0.36998632906259,-2.68631688531304));
#1563=CARTESIAN_POINT('',(2.5,-0.435912604569061,-2.69151360443218));
#1564=CARTESIAN_POINT('',(2.5,-0.563070019117341,-2.69709191750918));
#1565=CARTESIAN_POINT('',(2.5,-0.624317739578723,-2.69854595875459));
#1566=CARTESIAN_POINT('',(2.5,-0.685565460040105,-2.7));
#1567=CARTESIAN_POINT('',(2.5,-1.5,-2.7));
#1568=CARTESIAN_POINT('',(2.5,-0.685565460040105,-2.7));
#1569=VECTOR('',#1570,1.);
#1570=DIRECTION('',(0.,-1.,0.));
#1571=CARTESIAN_POINT('',(2.5,-1.5,-2.8));
#1572=CARTESIAN_POINT('',(2.5,-1.5,-2.7));
#1573=VECTOR('',#1574,1.);
#1574=DIRECTION('',(0.,0.,-1.));
#1575=CARTESIAN_POINT('',(2.5,1.5,-2.8));
#1576=VECTOR('',#1577,1.);
#1577=DIRECTION('',(0.,-1.,0.));
#1578=CARTESIAN_POINT('',(1.5,-2.5,-2.7));
#1579=AXIS2_PLACEMENT_3D('',#1580,#1581,#1582);
#1580=CARTESIAN_POINT('',(1.5,-1.5,-2.7));
#1581=DIRECTION('',(0.,0.,1.));
#1582=DIRECTION('',(0.,-1.,0.));
#1583=CARTESIAN_POINT('',(1.5,-2.5,-2.8));
#1584=CARTESIAN_POINT('',(1.5,-2.5,-2.7));
#1585=VECTOR('',#1586,1.);
#1586=DIRECTION('',(0.,0.,-1.));
#1587=AXIS2_PLACEMENT_3D('',#1588,#1589,#1590);
#1588=CARTESIAN_POINT('',(1.5,-1.5,-2.8));
#1589=DIRECTION('',(-0.,-0.,-1.));
#1590=DIRECTION('',(1.,-6.12323399573677E-017,0.));
#1591=CARTESIAN_POINT('',(0.685565460040107,-2.5,-2.7));
#1592=CARTESIAN_POINT('',(1.5,-2.5,-2.7));
#1593=VECTOR('',#1594,1.);
#1594=DIRECTION('',(-1.,0.,0.));
#1595=CARTESIAN_POINT('',(-0.685565460040106,-2.5,-2.7));
#1596=CARTESIAN_POINT('',(0.685565460040107,-2.5,-2.7));
#1597=CARTESIAN_POINT('',(0.621241879473141,-2.5,-2.69840190964683));
#1598=CARTESIAN_POINT('',(0.556918298906175,-2.5,-2.69680381929367));
#1599=CARTESIAN_POINT('',(0.426564689898479,-2.5,-2.6909634976611));
#1600=CARTESIAN_POINT('',(0.360590918110203,-2.5,-2.68574589343339));
#1601=CARTESIAN_POINT('',(0.228418347923837,-2.5,-2.67921217677118));
#1602=CARTESIAN_POINT('',(0.161760882514866,-2.5,-2.67561155781585));
#1603=CARTESIAN_POINT('',(0.0286866851715955,-2.5,-2.67295345916567));
#1604=CARTESIAN_POINT('',(-0.0381918426121351,-2.5,-2.67305084005884));
#1605=CARTESIAN_POINT('',(-0.171244075413446,-2.5,-2.67595863824464));
#1606=CARTESIAN_POINT('',(-0.237879500058813,-2.5,-2.67969492078329));
#1607=CARTESIAN_POINT('',(-0.369986329062589,-2.5,-2.68631688531304));
#1608=CARTESIAN_POINT('',(-0.435912604569058,-2.5,-2.69151360443218));
#1609=CARTESIAN_POINT('',(-0.56307001911734,-2.5,-2.69709191750918));
#1610=CARTESIAN_POINT('',(-0.624317739578723,-2.5,-2.69854595875459));
#1611=CARTESIAN_POINT('',(-0.685565460040106,-2.5,-2.7));
#1612=CARTESIAN_POINT('',(-1.5,-2.5,-2.7));
#1613=CARTESIAN_POINT('',(-0.685565460040106,-2.5,-2.7));
#1614=VECTOR('',#1615,1.);
#1615=DIRECTION('',(-1.,0.,0.));
#1616=CARTESIAN_POINT('',(-1.5,-2.5,-2.8));
#1617=CARTESIAN_POINT('',(-1.5,-2.5,-2.7));
#1618=VECTOR('',#1619,1.);
#1619=DIRECTION('',(0.,0.,-1.));
#1620=CARTESIAN_POINT('',(1.5,-2.5,-2.8));
#1621=VECTOR('',#1622,1.);
#1622=DIRECTION('',(-1.,0.,0.));
#1623=CARTESIAN_POINT('',(-2.5,-1.5,-2.7));
#1624=AXIS2_PLACEMENT_3D('',#1625,#1626,#1627);
#1625=CARTESIAN_POINT('',(-1.5,-1.5,-2.7));
#1626=DIRECTION('',(0.,-0.,1.));
#1627=DIRECTION('',(-1.,0.,0.));
#1628=CARTESIAN_POINT('',(-2.5,-1.5,-2.8));
#1629=CARTESIAN_POINT('',(-2.5,-1.5,-2.7));
#1630=VECTOR('',#1631,1.);
#1631=DIRECTION('',(0.,0.,-1.));
#1632=AXIS2_PLACEMENT_3D('',#1633,#1634,#1635);
#1633=CARTESIAN_POINT('',(-1.5,-1.5,-2.8));
#1634=DIRECTION('',(-0.,0.,-1.));
#1635=DIRECTION('',(-6.12323399573677E-017,-1.,0.));
#1636=CARTESIAN_POINT('',(-2.5,-0.685565460040103,-2.7));
#1637=CARTESIAN_POINT('',(-2.5,-1.5,-2.7));
#1638=VECTOR('',#1639,1.);
#1639=DIRECTION('',(0.,1.,0.));
#1640=CARTESIAN_POINT('',(-2.5,-2.22044604925031E-016,-2.6732050807569));
#1641=CARTESIAN_POINT('',(-2.5,-0.685565460040103,-2.7));
#1642=CARTESIAN_POINT('',(-2.5,-0.621241879473137,-2.69840190964683));
#1643=CARTESIAN_POINT('',(-2.5,-0.55691829890617,-2.69680381929367));
#1644=CARTESIAN_POINT('',(-2.5,-0.426564689898475,-2.6909634976611));
#1645=CARTESIAN_POINT('',(-2.5,-0.3605909181102,-2.68574589343339));
#1646=CARTESIAN_POINT('',(-2.5,-0.228418347923835,-2.67921217677119));
#1647=CARTESIAN_POINT('',(-2.5,-0.161801262675668,-2.67567475589382));
#1648=CARTESIAN_POINT('',(-2.5,-0.0635166638100295,-2.67361945911882));
#1649=CARTESIAN_POINT('',(-2.5,-0.0317583319050148,-2.67341226993786));
#1650=CARTESIAN_POINT('',(-2.5,-4.44089209850063E-016,-2.6732050807569));
#1651=CARTESIAN_POINT('',(-2.5,0.685565460040103,-2.7));
#1652=CARTESIAN_POINT('',(-2.5,0.,-2.6732050807569));
#1653=CARTESIAN_POINT('',(-2.5,0.0667050729016895,-2.67420188014341));
#1654=CARTESIAN_POINT('',(-2.5,0.133410145803379,-2.67519867952992));
#1655=CARTESIAN_POINT('',(-2.5,0.266127051958111,-2.6803084977916));
#1656=CARTESIAN_POINT('',(-2.5,0.332483901242511,-2.68509649239003));
#1657=CARTESIAN_POINT('',(-2.5,0.463817535685881,-2.69197257869389));
#1658=CARTESIAN_POINT('',(-2.5,0.529211035494007,-2.69655571276398));
#1659=CARTESIAN_POINT('',(-2.5,0.624515079983512,-2.69925153318648));
#1660=CARTESIAN_POINT('',(-2.5,0.655040270011808,-2.69962576659324));
#1661=CARTESIAN_POINT('',(-2.5,0.685565460040103,-2.7));
#1662=CARTESIAN_POINT('',(-2.5,1.5,-2.7));
#1663=CARTESIAN_POINT('',(-2.5,0.685565460040103,-2.7));
#1664=VECTOR('',#1665,1.);
#1665=DIRECTION('',(0.,1.,0.));
#1666=CARTESIAN_POINT('',(-2.5,1.5,-2.8));
#1667=CARTESIAN_POINT('',(-2.5,1.5,-2.7));
#1668=VECTOR('',#1669,1.);
#1669=DIRECTION('',(0.,0.,-1.));
#1670=CARTESIAN_POINT('',(-2.5,-1.5,-2.8));
#1671=VECTOR('',#1672,1.);
#1672=DIRECTION('',(0.,1.,0.));
#1673=CARTESIAN_POINT('',(-1.5,2.5,-2.7));
#1674=AXIS2_PLACEMENT_3D('',#1675,#1676,#1677);
#1675=CARTESIAN_POINT('',(-1.5,1.5,-2.7));
#1676=DIRECTION('',(-0.,0.,1.));
#1677=DIRECTION('',(0.,1.,0.));
#1678=CARTESIAN_POINT('',(-1.5,2.5,-2.8));
#1679=CARTESIAN_POINT('',(-1.5,2.5,-2.7));
#1680=VECTOR('',#1681,1.);
#1681=DIRECTION('',(0.,0.,-1.));
#1682=AXIS2_PLACEMENT_3D('',#1683,#1684,#1685);
#1683=CARTESIAN_POINT('',(-1.5,1.5,-2.8));
#1684=DIRECTION('',(0.,-0.,-1.));
#1685=DIRECTION('',(-1.,6.12323399573677E-017,0.));
#1686=CARTESIAN_POINT('',(-0.685565460040105,2.5,-2.7));
#1687=CARTESIAN_POINT('',(-1.5,2.5,-2.7));
#1688=VECTOR('',#1689,1.);
#1689=DIRECTION('',(1.,0.,0.));
#1690=CARTESIAN_POINT('',(0.685565460040106,2.5,-2.7));
#1691=CARTESIAN_POINT('',(-0.685565460040105,2.5,-2.7));
#1692=CARTESIAN_POINT('',(-0.621241879473138,2.5,-2.69840190964683));
#1693=CARTESIAN_POINT('',(-0.556918298906172,2.5,-2.69680381929367));
#1694=CARTESIAN_POINT('',(-0.426564689898476,2.5,-2.6909634976611));
#1695=CARTESIAN_POINT('',(-0.360590918110201,2.5,-2.68574589343339));
#1696=CARTESIAN_POINT('',(-0.228418347923836,2.5,-2.67921217677118));
#1697=CARTESIAN_POINT('',(-0.161760882514863,2.5,-2.67561155781585));
#1698=CARTESIAN_POINT('',(-0.0286866851715927,2.5,-2.67295345916567));
#1699=CARTESIAN_POINT('',(0.0381918426121386,2.5,-2.67305084005884));
#1700=CARTESIAN_POINT('',(0.171244075413449,2.5,-2.67595863824464));
#1701=CARTESIAN_POINT('',(0.237879500058815,2.5,-2.67969492078329));
#1702=CARTESIAN_POINT('',(0.369986329062591,2.5,-2.68631688531304));
#1703=CARTESIAN_POINT('',(0.435912604569061,2.5,-2.69151360443218));
#1704=CARTESIAN_POINT('',(0.563070019117342,2.5,-2.69709191750918));
#1705=CARTESIAN_POINT('',(0.624317739578724,2.5,-2.69854595875459));
#1706=CARTESIAN_POINT('',(0.685565460040106,2.5,-2.7));
#1707=CARTESIAN_POINT('',(0.685565460040106,2.5,-2.7));
#1708=VECTOR('',#1709,1.);
#1709=DIRECTION('',(1.,0.,0.));
#1710=CARTESIAN_POINT('',(-1.5,2.5,-2.8));
#1711=VECTOR('',#1712,1.);
#1712=DIRECTION('',(1.,0.,0.));
#1713=CARTESIAN_POINT('',(-2.3,-1.5,-2.5));
#1714=CARTESIAN_POINT('',(-2.3,-0.685565460040104,-2.5));
#1715=CARTESIAN_POINT('',(-2.3,-1.5,-2.5));
#1716=VECTOR('',#1717,1.);
#1717=DIRECTION('',(0.,1.,0.));
#1718=CARTESIAN_POINT('',(-1.5,-2.3,-2.5));
#1719=AXIS2_PLACEMENT_3D('',#1720,#1721,#1722);
#1720=CARTESIAN_POINT('',(-1.5,-1.5,-2.5));
#1721=DIRECTION('',(0.,0.,1.));
#1722=DIRECTION('',(-1.,0.,0.));
#1723=CARTESIAN_POINT('',(-0.685565460040107,-2.3,-2.5));
#1724=CARTESIAN_POINT('',(-0.685565460040107,-2.3,-2.5));
#1725=VECTOR('',#1726,1.);
#1726=DIRECTION('',(-1.,0.,0.));
#1727=AXIS2_PLACEMENT_3D('',#1728,#1729,#1730);
#1728=CARTESIAN_POINT('',(0.,0.,-2.5));
#1729=DIRECTION('',(0.,0.,-1.));
#1730=DIRECTION('',(-0.285652275016711,-0.958333333333333,0.));
#1731=CARTESIAN_POINT('',(-2.4,-1.95943487863577E-016,1.82261613209297E-015));
#1732=CARTESIAN_POINT('',(2.4,-3.09947056698866E-015,3.64523226418593E-015));
#1733=AXIS2_PLACEMENT_3D('',#1734,#1735,#1736);
#1734=CARTESIAN_POINT('',(0.,0.,0.));
#1735=DIRECTION('',(-0.,-0.,1.));
#1736=DIRECTION('',(-1.,-2.44929359829471E-016,-0.));
#1737=AXIS2_PLACEMENT_3D('',#1738,#1739,#1740);
#1738=CARTESIAN_POINT('',(0.,0.,0.));
#1739=DIRECTION('',(-0.,-0.,1.));
#1740=DIRECTION('',(1.,-1.20980294963545E-015,-0.));
#1741=CARTESIAN_POINT('',(0.685565460040105,2.3,-2.5));
#1742=CARTESIAN_POINT('',(2.3,0.685565460040105,-2.5));
#1743=AXIS2_PLACEMENT_3D('',#1744,#1745,#1746);
#1744=CARTESIAN_POINT('',(0.,0.,-2.5));
#1745=DIRECTION('',(0.,0.,-1.));
#1746=DIRECTION('',(0.285652275016711,0.958333333333333,0.));
#1747=CARTESIAN_POINT('',(-0.685565460040105,2.3,-2.5));
#1748=AXIS2_PLACEMENT_3D('',#1749,#1750,#1751);
#1749=CARTESIAN_POINT('',(0.,0.,-2.5));
#1750=DIRECTION('',(0.,0.,-1.));
#1751=DIRECTION('',(-0.285652275016711,0.958333333333333,0.));
#1752=CARTESIAN_POINT('',(-2.3,0.685565460040103,-2.5));
#1753=AXIS2_PLACEMENT_3D('',#1754,#1755,#1756);
#1754=CARTESIAN_POINT('',(0.,0.,-2.5));
#1755=DIRECTION('',(0.,0.,-1.));
#1756=DIRECTION('',(-0.958333333333333,0.28565227501671,0.));
#1757=CARTESIAN_POINT('',(-2.4,-2.93915231795365E-016,-2.5));
#1758=AXIS2_PLACEMENT_3D('',#1759,#1760,#1761);
#1759=CARTESIAN_POINT('',(0.,0.,-2.5));
#1760=DIRECTION('',(0.,0.,-1.));
#1761=DIRECTION('',(-1.,0.,0.));
#1762=AXIS2_PLACEMENT_3D('',#1763,#1764,#1765);
#1763=CARTESIAN_POINT('',(0.,0.,-2.5));
#1764=DIRECTION('',(0.,0.,-1.));
#1765=DIRECTION('',(-0.958333333333333,-0.28565227501671,0.));
#1766=CARTESIAN_POINT('',(0.685565460040108,-2.3,-2.5));
#1767=AXIS2_PLACEMENT_3D('',#1768,#1769,#1770);
#1768=CARTESIAN_POINT('',(0.,0.,-2.5));
#1769=DIRECTION('',(0.,0.,-1.));
#1770=DIRECTION('',(0.285652275016712,-0.958333333333333,0.));
#1771=CARTESIAN_POINT('',(2.3,-0.685565460040104,-2.5));
#1772=AXIS2_PLACEMENT_3D('',#1773,#1774,#1775);
#1773=CARTESIAN_POINT('',(0.,0.,-2.5));
#1774=DIRECTION('',(0.,0.,-1.));
#1775=DIRECTION('',(0.958333333333333,-0.28565227501671,0.));
#1776=AXIS2_PLACEMENT_3D('',#1777,#1778,#1779);
#1777=CARTESIAN_POINT('',(0.,0.,-2.5));
#1778=DIRECTION('',(0.,0.,-1.));
#1779=DIRECTION('',(0.958333333333333,0.285652275016711,0.));
#1780=CARTESIAN_POINT('',(2.5,-3.06161699786838E-016,1.1267949192431));
#1781=AXIS2_PLACEMENT_3D('',#1782,#1783,#1784);
#1782=CARTESIAN_POINT('',(0.,0.,1.1267949192431));
#1783=DIRECTION('',(0.,0.,1.));
#1784=DIRECTION('',(1.,0.,0.));
#1785=CARTESIAN_POINT('',(2.5,-2.47403456474852E-015,0.173205080756897));
#1786=AXIS2_PLACEMENT_3D('',#1787,#1788,#1789);
#1787=CARTESIAN_POINT('',(0.,0.,0.173205080756897));
#1788=DIRECTION('',(0.,0.,1.));
#1789=DIRECTION('',(1.,-1.20980294963545E-015,0.));
#1790=CARTESIAN_POINT('',(2.4,-2.93915231795365E-016,3.8));
#1791=AXIS2_PLACEMENT_3D('',#1792,#1793,#1794);
#1792=CARTESIAN_POINT('',(0.,0.,3.8));
#1793=DIRECTION('',(0.,0.,1.));
#1794=DIRECTION('',(1.,0.,0.));
#1795=CARTESIAN_POINT('',(2.4,-2.93915231795365E-016,1.3));
#1796=AXIS2_PLACEMENT_3D('',#1797,#1798,#1799);
#1797=CARTESIAN_POINT('',(0.,0.,1.3));
#1798=DIRECTION('',(0.,0.,1.));
#1799=DIRECTION('',(1.,0.,0.));
#1800=CARTESIAN_POINT('',(2.5,-3.06161699786838E-016,4.3));
#1801=AXIS2_PLACEMENT_3D('',#1802,#1803,#1804);
#1802=CARTESIAN_POINT('',(0.,0.,4.3));
#1803=DIRECTION('',(0.,0.,1.));
#1804=DIRECTION('',(1.,0.,0.));
#1805=CARTESIAN_POINT('',(2.5,-3.06161699786838E-016,3.9732050807569));
#1806=AXIS2_PLACEMENT_3D('',#1807,#1808,#1809);
#1807=CARTESIAN_POINT('',(0.,0.,3.9732050807569));
#1808=DIRECTION('',(0.,0.,1.));
#1809=DIRECTION('',(1.,0.,0.));
#1810=CARTESIAN_POINT('',(2.3,-2.81668763803891E-016,4.5));
#1811=AXIS2_PLACEMENT_3D('',#1812,#1813,#1814);
#1812=CARTESIAN_POINT('',(0.,0.,4.5));
#1813=DIRECTION('',(0.,0.,1.));
#1814=DIRECTION('',(1.,0.,0.));
#1815=CARTESIAN_POINT('',(1.2,-1.46957615897682E-016,4.5));
#1816=AXIS2_PLACEMENT_3D('',#1817,#1818,#1819);
#1817=CARTESIAN_POINT('',(0.,0.,4.5));
#1818=DIRECTION('',(0.,0.,1.));
#1819=DIRECTION('',(1.,0.,0.));
#1820=CARTESIAN_POINT('',(1.,-1.22464679914735E-016,4.3));
#1821=AXIS2_PLACEMENT_3D('',#1822,#1823,#1824);
#1822=CARTESIAN_POINT('',(0.,0.,4.3));
#1823=DIRECTION('',(0.,0.,1.));
#1824=DIRECTION('',(1.,0.,0.));
#1825=CARTESIAN_POINT('',(1.,0.,4.2));
#1826=AXIS2_PLACEMENT_3D('',#1827,#1828,#1829);
#1827=CARTESIAN_POINT('',(0.,0.,4.2));
#1828=DIRECTION('',(0.,0.,1.));
#1829=DIRECTION('',(1.,0.,0.));
#1830=AXIS2_PLACEMENT_3D('',#1831,#1832,#1833);
#1831=CARTESIAN_POINT('',(-2.3,1.5,-2.8));
#1832=DIRECTION('',(-0.,-1.,-0.));
#1833=DIRECTION('',(-1.,0.,-6.12323399573677E-017));
#1834=AXIS2_PLACEMENT_3D('',#1835,#1836,#1837);
#1835=CARTESIAN_POINT('',(-2.3,-1.5,-2.8));
#1836=DIRECTION('',(0.,1.,0.));
#1837=DIRECTION('',(0.,0.,-1.));
#1838=AXIS2_PLACEMENT_3D('',#1839,#1840,#1841);
#1839=CARTESIAN_POINT('',(-1.5,2.3,-2.8));
#1840=DIRECTION('',(1.,0.,-0.));
#1841=DIRECTION('',(0.,0.,-1.));
#1842=AXIS2_PLACEMENT_3D('',#1843,#1844,#1845);
#1843=CARTESIAN_POINT('',(1.5,2.3,-2.8));
#1844=DIRECTION('',(-1.,0.,-0.));
#1845=DIRECTION('',(0.,1.,-6.12323399573677E-017));
#1846=AXIS2_PLACEMENT_3D('',#1847,#1848,#1849);
#1847=CARTESIAN_POINT('',(2.3,1.5,-2.8));
#1848=DIRECTION('',(1.11022302462516E-016,-1.,-0.));
#1849=DIRECTION('',(-2.22044604925031E-015,-2.46519032881566E-031,-1.));
#1850=AXIS2_PLACEMENT_3D('',#1851,#1852,#1853);
#1851=CARTESIAN_POINT('',(2.3,-1.5,-2.8));
#1852=DIRECTION('',(-0.,1.,-0.));
#1853=DIRECTION('',(1.,0.,-6.12323399573677E-017));
#1854=AXIS2_PLACEMENT_3D('',#1855,#1856,#1857);
#1855=CARTESIAN_POINT('',(1.5,-2.3,-2.8));
#1856=DIRECTION('',(-1.,3.88578058618805E-016,0.));
#1857=DIRECTION('',(8.62816615085481E-031,2.22044604925031E-015,-1.));
#1858=AXIS2_PLACEMENT_3D('',#1859,#1860,#1861);
#1859=CARTESIAN_POINT('',(-1.5,-2.3,-2.8));
#1860=DIRECTION('',(1.,-0.,0.));
#1861=DIRECTION('',(0.,-1.,-2.28167838920768E-015));
#1862=CARTESIAN_POINT('',(-2.3,1.5,-2.5));
#1863=CARTESIAN_POINT('',(-2.3,0.685565460040103,-2.5));
#1864=VECTOR('',#1865,1.);
#1865=DIRECTION('',(0.,1.,0.));
#1866=CARTESIAN_POINT('',(-1.5,2.3,-2.5));
#1867=CARTESIAN_POINT('',(-1.5,2.3,-2.5));
#1868=VECTOR('',#1869,1.);
#1869=DIRECTION('',(1.,0.,0.));
#1870=AXIS2_PLACEMENT_3D('',#1871,#1872,#1873);
#1871=CARTESIAN_POINT('',(-1.5,1.5,-2.5));
#1872=DIRECTION('',(0.,0.,1.));
#1873=DIRECTION('',(0.,1.,0.));
#1874=CARTESIAN_POINT('',(1.5,2.3,-2.5));
#1875=CARTESIAN_POINT('',(0.685565460040106,2.3,-2.5));
#1876=VECTOR('',#1877,1.);
#1877=DIRECTION('',(1.,0.,0.));
#1878=CARTESIAN_POINT('',(2.3,1.5,-2.5));
#1879=CARTESIAN_POINT('',(2.3,1.5,-2.5));
#1880=VECTOR('',#1881,1.);
#1881=DIRECTION('',(0.,-1.,0.));
#1882=AXIS2_PLACEMENT_3D('',#1883,#1884,#1885);
#1883=CARTESIAN_POINT('',(1.5,1.5,-2.5));
#1884=DIRECTION('',(0.,-0.,1.));
#1885=DIRECTION('',(1.,0.,0.));
#1886=CARTESIAN_POINT('',(2.3,-1.5,-2.5));
#1887=CARTESIAN_POINT('',(2.3,-0.685565460040105,-2.5));
#1888=VECTOR('',#1889,1.);
#1889=DIRECTION('',(0.,-1.,0.));
#1890=CARTESIAN_POINT('',(1.5,-2.3,-2.5));
#1891=CARTESIAN_POINT('',(1.5,-2.3,-2.5));
#1892=VECTOR('',#1893,1.);
#1893=DIRECTION('',(-1.,0.,0.));
#1894=AXIS2_PLACEMENT_3D('',#1895,#1896,#1897);
#1895=CARTESIAN_POINT('',(1.5,-1.5,-2.5));
#1896=DIRECTION('',(0.,-0.,1.));
#1897=DIRECTION('',(2.77555756156289E-016,-1.,0.));
#1898=AXIS2_PLACEMENT_3D('',#1899,#1900,#1901);
#1899=CARTESIAN_POINT('',(-2.3,-1.5,-2.7));
#1900=DIRECTION('',(1.66533453693774E-016,-1.,-0.));
#1901=DIRECTION('',(2.22044604925031E-015,3.69778549322349E-031,1.));
#1902=AXIS2_PLACEMENT_3D('',#1903,#1904,#1905);
#1903=CARTESIAN_POINT('',(-2.3,-0.685565460040104,-2.7));
#1904=DIRECTION('',(0.,1.,-0.));
#1905=DIRECTION('',(-1.,0.,6.12323399573677E-017));
#1906=AXIS2_PLACEMENT_3D('',#1907,#1908,#1909);
#1907=CARTESIAN_POINT('',(-2.29999999999999,-4.44089209850068E-016,-2.67320508075689));
#1908=DIRECTION('',(5.75013472341656E-031,1.,8.29890515408237E-016));
#1909=DIRECTION('',(-1.,2.63731930998203E-029,-3.10862446895035E-014));
#1910=AXIS2_PLACEMENT_3D('',#1911,#1912,#1913);
#1911=CARTESIAN_POINT('',(-2.3,0.685565460040103,-2.7));
#1912=DIRECTION('',(0.,1.,-0.));
#1913=DIRECTION('',(-1.,0.,6.12323399573677E-017));
#1914=AXIS2_PLACEMENT_3D('',#1915,#1916,#1917);
#1915=CARTESIAN_POINT('',(-2.3,1.5,-2.7));
#1916=DIRECTION('',(0.,1.,-0.));
#1917=DIRECTION('',(-1.,0.,6.12323399573677E-017));
#1918=AXIS2_PLACEMENT_3D('',#1919,#1920,#1921);
#1919=CARTESIAN_POINT('',(-1.5,2.3,-2.7));
#1920=DIRECTION('',(-1.,-5.55111512312578E-017,0.));
#1921=DIRECTION('',(1.23259516440783E-031,-2.22044604925031E-015,1.));
#1922=AXIS2_PLACEMENT_3D('',#1923,#1924,#1925);
#1923=CARTESIAN_POINT('',(-0.685565460040105,2.3,-2.7));
#1924=DIRECTION('',(1.,-0.,-0.));
#1925=DIRECTION('',(0.,1.,6.12323399573677E-017));
#1926=AXIS2_PLACEMENT_3D('',#1927,#1928,#1929);
#1927=CARTESIAN_POINT('',(0.685565460040106,2.3,-2.7));
#1928=DIRECTION('',(1.,-0.,-0.));
#1929=DIRECTION('',(0.,1.,6.12323399573677E-017));
#1930=AXIS2_PLACEMENT_3D('',#1931,#1932,#1933);
#1931=CARTESIAN_POINT('',(1.5,2.3,-2.7));
#1932=DIRECTION('',(1.,-0.,-0.));
#1933=DIRECTION('',(0.,1.,6.12323399573677E-017));
#1934=AXIS2_PLACEMENT_3D('',#1935,#1936,#1937);
#1935=CARTESIAN_POINT('',(2.3,1.5,-2.7));
#1936=DIRECTION('',(3.33066907387547E-016,1.,0.));
#1937=DIRECTION('',(0.,0.,1.));
#1938=AXIS2_PLACEMENT_3D('',#1939,#1940,#1941);
#1939=CARTESIAN_POINT('',(2.3,0.685565460040105,-2.7));
#1940=DIRECTION('',(0.,-1.,-0.));
#1941=DIRECTION('',(1.,0.,6.12323399573677E-017));
#1942=AXIS2_PLACEMENT_3D('',#1943,#1944,#1945);
#1943=CARTESIAN_POINT('',(2.3,-0.685565460040105,-2.7));
#1944=DIRECTION('',(0.,-1.,-0.));
#1945=DIRECTION('',(1.,0.,6.12323399573677E-017));
#1946=AXIS2_PLACEMENT_3D('',#1947,#1948,#1949);
#1947=CARTESIAN_POINT('',(2.3,-1.5,-2.7));
#1948=DIRECTION('',(0.,-1.,-0.));
#1949=DIRECTION('',(1.,0.,6.12323399573677E-017));
#1950=AXIS2_PLACEMENT_3D('',#1951,#1952,#1953);
#1951=CARTESIAN_POINT('',(1.5,-2.3,-2.7));
#1952=DIRECTION('',(1.,5.55111512312578E-017,0.));
#1953=DIRECTION('',(-1.23259516440783E-031,2.22044604925031E-015,1.));
#1954=AXIS2_PLACEMENT_3D('',#1955,#1956,#1957);
#1955=CARTESIAN_POINT('',(0.685565460040107,-2.3,-2.7));
#1956=DIRECTION('',(-1.,0.,-0.));
#1957=DIRECTION('',(0.,-1.,2.28167838920768E-015));
#1958=AXIS2_PLACEMENT_3D('',#1959,#1960,#1961);
#1959=CARTESIAN_POINT('',(-0.685565460040106,-2.3,-2.7));
#1960=DIRECTION('',(-1.,0.,-0.));
#1961=DIRECTION('',(0.,-1.,2.28167838920768E-015));
#1962=AXIS2_PLACEMENT_3D('',#1963,#1964,#1965);
#1963=CARTESIAN_POINT('',(-1.5,-2.3,-2.7));
#1964=DIRECTION('',(-1.,0.,-0.));
#1965=DIRECTION('',(0.,-1.,2.28167838920768E-015));
ENDSEC;
END-ISO-10303-21;
